<svg width="184" height="39" viewBox="0 0 414 124" fill="none" xmlns="http://www.w3.org/2000/svg">
<path d="M64.1531 95.2218V103.68H78.7366V108.979H64.1531V117.778H79.8061V123.417H57.7363V89.5828H79.8061V95.2218H64.1531ZM117.706 89.5828V123.417H111.289L95.2474 101.055V123.417H88.8307V89.5828H95.2474L111.289 111.896V89.5828H117.706ZM135.051 95.4649H125.426V89.5828H151.093V95.4649H141.468V123.417H135.051V95.4649ZM165.222 95.2218V103.68H179.805V108.979H165.222V117.778H180.875V123.417H158.805V89.5828H180.875V95.2218H165.222ZM209.247 123.417L202.344 110.535H196.316V123.417H189.9V89.5828H202.101C206.476 89.5828 209.749 90.4579 211.921 92.2079C214.092 93.9579 215.178 96.502 215.178 99.8399C215.178 102.206 214.643 104.215 213.574 105.868C212.504 107.521 210.916 108.752 208.81 109.562L216.296 123.417H209.247ZM196.316 104.896H202.15C204.289 104.896 205.86 104.523 206.865 103.777C207.902 103.032 208.421 101.768 208.421 99.9858C208.421 98.268 207.918 97.0528 206.914 96.3399C205.909 95.627 204.305 95.2704 202.101 95.2704H196.316V104.896ZM223.937 89.5828H235.118C239.785 89.5828 243.268 90.5388 245.569 92.4509C247.87 94.3305 249.021 97.0691 249.021 100.666C249.021 104.296 247.887 107.115 245.618 109.125C243.349 111.134 240.044 112.139 235.701 112.139H230.354V123.417H223.937V89.5828ZM235.167 106.548C237.597 106.548 239.379 106.111 240.514 105.236C241.681 104.361 242.264 102.886 242.264 100.812C242.264 98.8028 241.697 97.377 240.562 96.5343C239.428 95.6916 237.613 95.2704 235.118 95.2704H230.354V106.548H235.167ZM275.376 123.417L268.473 110.535H262.445V123.417H256.028V89.5828H268.23C272.605 89.5828 275.878 90.4579 278.05 92.2079C280.221 93.9579 281.307 96.502 281.307 99.8399C281.307 102.206 280.772 104.215 279.702 105.868C278.633 107.521 277.045 108.752 274.938 109.562L282.425 123.417H275.376ZM262.445 104.896H268.279C270.417 104.896 271.989 104.523 272.994 103.777C274.031 103.032 274.549 101.768 274.549 99.9858C274.549 98.268 274.047 97.0528 273.042 96.3399C272.038 95.627 270.434 95.2704 268.23 95.2704H262.445V104.896ZM289.629 89.5828H296.045V123.417H289.629V89.5828ZM316.136 124C314.323 124 312.393 123.757 310.351 123.271C308.31 122.785 306.382 122.12 304.567 121.278V115.055C308.782 117.324 312.539 118.458 315.845 118.458C317.497 118.458 318.827 118.102 319.831 117.389C320.869 116.676 321.386 115.671 321.386 114.375C321.386 113.468 321.095 112.706 320.511 112.09C319.962 111.442 319.265 110.923 318.421 110.535C317.58 110.113 316.379 109.611 314.824 109.028C312.719 108.25 311.001 107.504 309.671 106.791C308.344 106.079 307.209 105.074 306.268 103.777C305.33 102.449 304.858 100.747 304.858 98.6732C304.858 95.627 305.913 93.261 308.018 91.5759C310.126 89.8582 313.011 88.9995 316.671 88.9995C318.39 88.9995 320.074 89.194 321.727 89.5828C323.379 89.9394 324.903 90.4742 326.296 91.187V97.2635C323.025 95.4486 319.865 94.5412 316.817 94.5412C315.133 94.5412 313.803 94.8492 312.831 95.4649C311.893 96.0482 311.421 96.8909 311.421 97.9927C311.421 99.0944 311.907 99.9695 312.879 100.618C313.886 101.233 315.424 101.914 317.497 102.659C319.671 103.47 321.452 104.247 322.845 104.993C324.24 105.738 325.438 106.824 326.442 108.25C327.48 109.643 328.032 111.458 328.095 113.694C328.095 116.903 327.011 119.43 324.838 121.278C322.667 123.093 319.768 124 316.136 124ZM343.147 95.2218V103.68H357.731V108.979H343.147V117.778H358.8V123.417H336.73V89.5828H358.8V95.2218H343.147Z" fill="black"/>
<path d="M53.7588 38.5462L68.0564 75.3768H59.1347C59.1347 75.3768 48.0398 47.2392 48.1542 47.2392C44.1509 47.6967 40.1476 48.6117 36.4874 49.9843C21.6179 55.5889 13.1538 67.3701 9.26482 74.4617L8.92168 75.3768H0L1.60133 71.2591L1.48695 71.1447C1.60133 71.0303 1.71571 70.9159 1.71571 70.8015L29.3958 0H38.6606L52.8438 36.373L44.1509 36.9449L33.971 11.0949C33.971 11.0949 18.644 50.6706 18.5296 50.6706C23.1049 47.0104 28.1376 44.1509 33.6279 42.092C37.6312 40.6051 42.092 39.4613 46.4385 39.1181L53.7588 38.5462ZM106.23 44.9515L125.332 75.3768H115.495L96.6221 45.2947H81.5239V75.3768H73.1741V10.6374H81.5239V36.8305H102.684C110.577 36.8305 116.982 30.5396 116.982 22.6473C116.982 14.7551 110.577 8.34978 102.684 8.34978H73.1741V0H102.684C115.152 0 125.332 10.1799 125.332 22.6473C125.332 33.8566 117.096 43.2358 106.23 44.9515ZM167.65 75.3768C146.833 75.3768 130.019 58.5628 130.019 37.7456C130.019 16.9283 146.833 0 167.65 0C188.467 0 205.395 16.9283 205.395 37.7456C205.395 58.5628 188.467 75.3768 167.65 75.3768ZM167.65 8.34978C151.522 8.34978 138.368 21.5035 138.368 37.7456C138.368 53.8732 151.522 67.027 167.65 67.027C183.892 67.027 197.046 53.8732 197.046 37.7456C197.046 21.5035 183.892 8.34978 167.65 8.34978ZM210.565 31.2259V0H218.915V31.2259H210.565ZM270.615 0V41.8633H218.915V75.3768H210.565V33.5135H218.915H262.265V0H270.615ZM262.265 75.4911V44.2653H270.615V75.4911H262.265ZM329.768 38.5462L344.065 75.3768H335.144C335.144 75.3768 324.049 47.2392 324.163 47.2392C320.16 47.6967 316.156 48.6117 312.496 49.9843C297.627 55.5889 289.163 67.3701 285.274 74.4617L284.93 75.3768H276.01L277.611 71.2591L277.497 71.1447C277.611 71.0303 277.726 70.9159 277.726 70.8015L305.405 0H314.669L328.853 36.373L320.16 36.9449L309.98 11.0949C309.98 11.0949 294.653 50.6706 294.538 50.6706C299.114 47.0104 304.146 44.1509 309.637 42.092C313.64 40.6051 318.101 39.4613 322.447 39.1181L329.768 38.5462ZM349.184 15.0982L357.534 23.448V75.4911H349.184V15.0982ZM413.351 0V75.3768H405.001V20.2454L387.158 38.0887L381.21 43.9221L375.377 38.0887L349.184 11.8956V0L357.534 8.34978L381.21 32.1409L405.001 8.34978L413.351 0Z" fill="black"/>
</svg>
