<svg width="572" height="572" viewBox="0 0 572 572" fill="none" xmlns="http://www.w3.org/2000/svg">
<path d="M387.4 314.8L462.4 508H415.6C415.6 508 357.4 360.4 358 360.4C337 362.8 316 367.6 296.8 374.8C218.8 404.2 174.4 466 154 503.2L152.2 508H105.4L113.8 486.4L113.2 485.8C113.8 485.2 114.4 484.6 114.4 484L259.6 112.6H308.2L382.6 303.4L337 306.4L283.6 170.8C283.6 170.8 203.2 378.4 202.6 378.4C226.6 359.2 253 344.2 281.8 333.4C302.8 325.6 326.2 319.6 349 317.8L387.4 314.8Z" fill="#233B87"/>
<circle cx="286" cy="286" r="267.5" stroke="#233B87" stroke-width="37"/>
</svg>
