<svg width="714" height="389" viewBox="0 0 714 389" fill="none" xmlns="http://www.w3.org/2000/svg">
<path d="M713.816 377.4C713.816 383.798 554.018 389 356.902 389C159.786 389 0 383.798 0 377.4C0 370.985 159.786 365.787 356.902 365.787C554.018 365.787 713.816 370.985 713.816 377.4Z" fill="#CCDDFC"/>
<path d="M608.615 265.505L607.557 264.357L612.428 259.882C613.877 258.547 613.974 256.283 612.65 254.825L609.095 250.906C608.172 249.887 607.698 248.569 607.768 247.193C607.833 245.822 608.433 244.553 609.446 243.631L612.7 240.694C613.418 240.038 613.839 239.141 613.878 238.178C613.919 237.205 613.567 236.286 612.917 235.577L609.707 232.142C608.72 231.093 608.231 229.726 608.328 228.284C608.421 226.876 609.104 225.547 610.205 224.644L612.422 222.834C613.233 222.173 613.711 221.191 613.737 220.14C613.763 219.092 613.324 218.086 612.548 217.387L607.915 213.22L608.96 212.062L613.591 216.222C614.706 217.238 615.324 218.676 615.295 220.178C615.26 221.681 614.566 223.086 613.406 224.038L611.186 225.847C610.407 226.484 609.947 227.385 609.883 228.393C609.812 229.395 610.152 230.349 610.843 231.085L614.047 234.513C615.002 235.527 615.491 236.851 615.433 238.242C615.377 239.631 614.774 240.91 613.743 241.842L610.501 244.784C609.783 245.432 609.37 246.314 609.32 247.274C609.277 248.235 609.605 249.149 610.246 249.863L613.807 253.776C615.705 255.867 615.556 259.118 613.479 261.025L608.615 265.505Z" fill="#012F6A"/>
<path d="M249.766 170.521L248.705 169.37L253.579 164.896C255.028 163.563 255.125 161.294 253.801 159.835L250.246 155.919C249.317 154.903 248.843 153.585 248.916 152.209C248.984 150.835 249.581 149.568 250.597 148.644L253.848 145.704C254.563 145.051 254.99 144.157 255.028 143.192C255.066 142.222 254.718 141.296 254.065 140.591L250.858 137.155C249.871 136.109 249.382 134.739 249.478 133.301C249.569 131.889 250.255 130.56 251.356 129.66L253.573 127.848C254.384 127.186 254.861 126.206 254.888 125.157C254.914 124.102 254.475 123.101 253.699 122.4L249.063 118.233L250.111 117.076L254.741 121.238C255.857 122.248 256.475 123.692 256.446 125.192C256.408 126.691 255.717 128.1 254.554 129.054L252.337 130.865C251.558 131.498 251.098 132.399 251.028 133.407C250.963 134.412 251.303 135.363 251.991 136.101L255.195 139.531C256.15 140.541 256.636 141.867 256.583 143.256C256.525 144.647 255.922 145.92 254.894 146.859L251.646 149.802C250.934 150.446 250.518 151.327 250.471 152.288C250.424 153.246 250.755 154.165 251.391 154.877L254.955 158.789C256.856 160.884 256.707 164.132 254.63 166.041L249.766 170.521Z" fill="#FC85AB"/>
<path d="M182.42 210.46L181.512 212.095C181.512 212.095 182.516 212.715 183.527 213.336C184.555 213.931 185.583 214.522 185.583 214.522L186.382 212.829C186.382 212.829 185.395 212.255 184.394 211.682C183.407 211.072 182.42 210.46 182.42 210.46Z" fill="#FF5CAB"/>
<path d="M176.676 206.554L175.677 208.118C175.677 208.118 176.644 208.806 177.61 209.491C178.589 210.162 179.561 210.83 179.561 210.83L180.507 209.227C180.507 209.227 179.543 208.568 178.577 207.913C177.634 207.23 176.676 206.554 176.676 206.554Z" fill="#FF5CAB"/>
<path d="M171.197 202.27L170.098 203.749C170.098 203.749 171.018 204.51 171.94 205.263C172.875 205.998 173.809 206.733 173.809 206.733L174.849 205.187C174.849 205.187 173.923 204.466 173.009 203.749C172.096 203.008 171.197 202.27 171.197 202.27Z" fill="#FF5CAB"/>
<path d="M166.025 197.56L164.818 198.951C164.818 198.951 165.682 199.79 166.546 200.614C167.428 201.429 168.321 202.229 168.321 202.229L169.454 200.767C169.454 200.767 168.585 199.982 167.715 199.191C166.877 198.378 166.025 197.56 166.025 197.56Z" fill="#FF5CAB"/>
<path d="M161.28 192.406L159.945 193.658C159.945 193.658 160.741 194.578 161.532 195.496C162.317 196.414 163.175 197.27 163.175 197.27L164.417 195.917C164.417 195.917 163.585 195.085 162.821 194.189C162.051 193.296 161.28 192.406 161.28 192.406Z" fill="#FF5CAB"/>
<path d="M157.166 186.716L155.687 187.77C155.687 187.77 156.314 188.834 157.046 189.818C157.737 190.819 158.478 191.789 158.478 191.789L159.86 190.591C159.86 190.591 159.137 189.662 158.472 188.684C157.763 187.738 157.166 186.716 157.166 186.716Z" fill="#FF5CAB"/>
<path d="M153.924 180.472L152.292 181.225C152.292 181.225 152.796 182.366 153.303 183.506C153.88 184.604 154.451 185.699 154.451 185.699L155.977 184.733C155.977 184.733 155.423 183.69 154.872 182.639C154.401 181.552 153.924 180.472 153.924 180.472Z" fill="#FF5CAB"/>
<path d="M151.961 173.709L150.218 174.039C150.11 174.071 151.34 178.962 151.451 178.928L153.13 178.295C153.024 178.324 151.867 173.726 151.961 173.709Z" fill="#FF5CAB"/>
<path d="M151.733 166.683L149.97 166.489C149.827 166.484 149.803 171.583 149.906 171.571L151.678 171.41C151.581 171.41 151.601 166.675 151.733 166.683Z" fill="#FF5CAB"/>
<path d="M153.297 159.841L151.634 159.162C151.634 159.162 151.238 160.354 150.831 161.557C150.57 162.788 150.304 164.035 150.304 164.035L152.041 164.392C152.041 164.392 152.293 163.241 152.539 162.085C152.913 160.963 153.297 159.841 153.297 159.841Z" fill="#FF5CAB"/>
<path d="M156.384 153.56L154.896 152.514C154.896 152.514 154.258 153.577 153.628 154.641C153.083 155.768 152.556 156.893 152.556 156.893L154.164 157.707C154.164 157.707 154.665 156.644 155.172 155.575C155.775 154.57 156.384 153.56 156.384 153.56Z" fill="#FF5CAB"/>
<path d="M160.531 147.939L159.225 146.666C159.225 146.666 158.37 147.515 157.676 148.531C156.941 149.521 156.211 150.505 156.211 150.505L157.641 151.633C157.641 151.633 158.335 150.693 159.038 149.747C159.702 148.774 160.531 147.939 160.531 147.939Z" fill="#FF5CAB"/>
<path d="M165.301 142.727L164.045 141.382L160.803 144.878L162.062 146.22L165.301 142.727Z" fill="#FF5CAB"/>
<path d="M170.099 137.443L168.798 136.145C168.798 136.145 168.022 137.045 167.237 137.94C166.432 138.813 165.624 139.686 165.624 139.686L166.895 141.013C166.895 141.013 167.712 140.131 168.52 139.247C169.311 138.345 170.099 137.443 170.099 137.443Z" fill="#FF5CAB"/>
<path d="M174.715 131.964L173.371 130.727C173.371 130.727 172.636 131.656 171.883 132.589C171.107 133.486 170.328 134.388 170.328 134.388L171.64 135.665C171.64 135.665 172.425 134.754 173.207 133.843C173.965 132.909 174.715 131.964 174.715 131.964Z" fill="#FF5CAB"/>
<path d="M179.101 126.253L177.695 125.104C177.695 125.104 176.995 126.067 176.287 127.031C175.59 127.997 174.828 128.905 174.828 128.905L176.193 130.121C176.193 130.121 176.96 129.193 177.675 128.217C178.386 127.236 179.101 126.253 179.101 126.253Z" fill="#FF5CAB"/>
<path d="M183.149 120.261L181.676 119.217C181.676 119.217 181.029 120.225 180.385 121.224C179.752 122.243 179.055 123.21 179.055 123.21L180.484 124.334C180.484 124.334 181.202 123.351 181.84 122.316C182.499 121.288 183.149 120.261 183.149 120.261Z" fill="#FF5CAB"/>
<path d="M186.701 113.869L185.12 113.006C185.225 113.061 182.879 117.22 182.879 117.22L184.388 118.212C184.388 118.212 186.801 113.934 186.701 113.869Z" fill="#FF5CAB"/>
<path d="M189.443 106.976L187.742 106.425C187.742 106.425 186.21 110.921 186.081 110.883L187.701 111.662C187.818 111.735 189.443 106.976 189.443 106.976Z" fill="#FF5CAB"/>
<path d="M190.743 99.5225L188.962 99.4991C189.012 99.5108 188.845 100.682 188.719 101.854C188.643 103.043 188.292 104.176 188.292 104.176L190.025 104.562C190.025 104.562 190.397 103.339 190.488 102.065C190.623 100.788 190.801 99.5284 190.743 99.5225Z" fill="#FF5CAB"/>
<path d="M189.85 92.0213L188.131 92.5397C188.271 92.5045 189.085 97.1641 188.939 97.1846L190.72 97.0206C190.881 97.0001 190.002 91.9774 189.85 92.0213Z" fill="#FF5CAB"/>
<path d="M186.764 85.2068L185.247 86.2231C185.364 86.1469 187.493 90.3145 187.385 90.3701L189.042 89.679C189.162 89.6174 186.878 85.1307 186.764 85.2068Z" fill="#FF5CAB"/>
<path d="M182.256 79.4255L180.982 80.7493C180.982 80.7493 181.785 81.6074 182.529 82.5065C183.258 83.4232 183.978 84.3369 183.978 84.3369L185.387 83.183C185.387 83.183 184.628 82.2165 183.864 81.253C183.076 80.31 182.256 79.4255 182.256 79.4255Z" fill="#FF5CAB"/>
<path d="M177.198 74.3556L176.029 75.7819C176.029 75.7819 176.884 76.5961 177.731 77.4102C178.601 78.2186 179.4 79.0796 179.4 79.0796L180.63 77.7119C180.63 77.7119 179.807 76.8304 178.935 76.0074C178.065 75.1874 177.198 74.3556 177.198 74.3556Z" fill="#FF5CAB"/>
<path d="M172.008 69.5592L170.846 70.9855L174.331 74.2041L175.491 72.7749L172.008 69.5592Z" fill="#FF5CAB"/>
<path d="M166.992 64.6413L165.744 66.0031C165.744 66.0031 166.579 66.8554 167.425 67.7193C168.283 68.5511 169.141 69.3945 169.141 69.3945L170.321 67.9741C170.321 67.9741 169.481 67.1541 168.637 66.337C167.809 65.4935 166.992 64.6413 166.992 64.6413Z" fill="#FF5CAB"/>
<path d="M162.443 59.3318L161.049 60.5032C161.049 60.5032 161.808 61.4638 162.555 62.4244C163.319 63.3704 164.139 64.2607 164.139 64.2607L165.431 62.9516C165.431 62.9516 164.631 62.0877 163.896 61.1739C163.17 60.2485 162.443 59.3318 162.443 59.3318Z" fill="#FF5CAB"/>
<path d="M158.829 53.3426L157.242 54.2036C157.242 54.2036 157.374 54.4906 157.567 54.9182C157.79 55.3253 158.097 55.8642 158.405 56.4089C158.982 57.513 159.687 58.5205 159.687 58.5205L161.143 57.4369C161.143 57.4369 160.469 56.4734 159.922 55.4249C159.629 54.9153 159.345 54.3969 159.128 54.0191C158.952 53.6179 158.829 53.3426 158.829 53.3426Z" fill="#FF5CAB"/>
<path d="M156.574 46.6971L154.843 47.1247C154.843 47.1247 154.907 47.4293 155.01 47.9037C155.095 48.3723 155.241 48.9815 155.458 49.5789C155.85 50.7651 156.246 51.9629 156.246 51.9629L157.889 51.2395C157.889 51.2395 157.523 50.1178 157.148 48.9961C156.94 48.4426 156.808 47.8686 156.726 47.4293C156.638 46.9988 156.574 46.6971 156.574 46.6971Z" fill="#FF5CAB"/>
<path d="M155.812 39.654L154.034 39.6775C154.034 39.6775 154.026 40.9456 154.125 42.1932C154.257 43.4496 154.392 44.7002 154.392 44.7002L156.149 44.4219C156.149 44.4219 156.026 43.23 155.9 42.0409C155.803 40.8519 155.812 39.654 155.812 39.654Z" fill="#FF5CAB"/>
<path d="M156.378 32.5548L154.627 32.2151C154.627 32.2151 154.442 33.4569 154.246 34.7045C154.158 35.958 154.079 37.2085 154.079 37.2085L155.845 37.3081C155.845 37.3081 155.93 36.1161 156.012 34.9183C156.194 33.7409 156.378 32.5548 156.378 32.5548Z" fill="#FF5CAB"/>
<path d="M158.188 25.6988L156.533 25.0135C156.533 25.0135 156.144 26.1967 155.754 27.3828C155.373 28.5748 155.122 29.8048 155.122 29.8048L156.847 30.2705C156.847 30.2705 157.09 29.0961 157.444 27.9598C157.819 26.8205 158.188 25.6988 158.188 25.6988Z" fill="#FF5CAB"/>
<path d="M161.158 19.2969L159.644 18.307C159.644 18.307 159.061 19.3994 158.496 20.4976C157.89 21.5754 157.45 22.7527 157.45 22.7527L159.061 23.5435C159.061 23.5435 159.48 22.4247 160.054 21.3908C160.602 20.3453 161.158 19.2969 161.158 19.2969Z" fill="#FF5CAB"/>
<path d="M165.176 13.5887L163.849 12.3205C163.849 12.3205 163.035 13.2343 162.335 14.2447C161.585 15.2141 160.917 16.2538 160.917 16.2538L162.379 17.3433C162.379 17.3433 163.014 16.3504 163.729 15.4191C164.397 14.4556 165.176 13.5887 165.176 13.5887Z" fill="#FF5CAB"/>
<path d="M170.081 8.74764L169.004 7.24815C169.004 7.24815 168.028 7.95394 167.173 8.83255C166.301 9.67308 165.431 10.5165 165.431 10.5165L166.669 11.8638C166.669 11.8638 167.507 11.0642 168.342 10.253C169.15 9.42417 170.081 8.74764 170.081 8.74764Z" fill="#FF5CAB"/>
<path d="M175.761 5.00765L174.99 3.3002C174.99 3.3002 173.93 3.87423 172.882 4.44826C171.883 5.12771 170.881 5.80131 170.881 5.80131L171.865 7.38281C171.865 7.38281 172.814 6.74143 173.766 6.10004C174.756 5.55238 175.761 5.00765 175.761 5.00765Z" fill="#FF5CAB"/>
<path d="M182.022 2.6411L181.626 0.790183C181.626 0.790183 180.481 1.1299 179.342 1.47549C178.768 1.63071 178.203 1.83279 177.801 2.02608C177.391 2.2018 177.11 2.32188 177.11 2.32188L177.769 4.08496C177.769 4.08496 178.03 3.97368 178.417 3.80382C178.797 3.61931 179.33 3.43186 179.869 3.27957C180.953 2.9662 182.022 2.6411 182.022 2.6411Z" fill="#FF5CAB"/>
<path d="M188.62 1.92343L188.649 0.0344422C188.649 -0.106135 183.898 0.221863 183.91 0.347796L184.168 2.2251C184.159 2.10795 188.62 1.7975 188.62 1.92343Z" fill="#FF5CAB"/>
<path d="M195.178 2.91699L195.635 1.08949C195.635 1.08949 194.501 0.694099 193.321 0.521307C192.146 0.330942 190.972 0.146461 190.972 0.146461L190.802 2.03545C190.802 2.03545 191.903 2.20534 193.005 2.38399C194.115 2.53921 195.178 2.91699 195.178 2.91699Z" fill="#FF5CAB"/>
<path d="M201.357 5.50781L202.188 3.82968C202.188 3.82968 201.155 3.21174 200.062 2.71093C198.964 2.25406 197.854 1.79718 197.854 1.79718L197.268 3.58954C197.268 3.58954 198.314 4.01418 199.359 4.44763C200.373 4.92208 201.357 5.50781 201.357 5.50781Z" fill="#FF5CAB"/>
<path d="M206.95 9.41846L208.046 7.93656C208.046 7.93656 207.179 7.08429 206.18 6.41655C205.193 5.71952 204.203 5.03128 204.203 5.03128L203.278 6.65086C203.278 6.65086 204.221 7.30981 205.152 7.96877C206.107 8.60722 206.95 9.41846 206.95 9.41846Z" fill="#FF5CAB"/>
<path d="M211.88 14.2822L213.186 12.9966C213.186 12.9966 212.377 12.0886 211.525 11.2188C210.688 10.3461 209.841 9.47627 209.841 9.47627L208.664 10.8937C208.664 10.8937 209.472 11.7313 210.283 12.5719C211.103 13.4066 211.88 14.2822 211.88 14.2822Z" fill="#FF5CAB"/>
<path d="M216.123 19.8882L217.561 18.7724C217.561 18.7724 216.87 17.7708 216.179 16.7662C215.485 15.7646 214.68 14.8479 214.68 14.8479L213.329 16.0721C213.329 16.0721 214.1 16.9595 214.776 17.9289C215.45 18.9071 216.123 19.8882 216.123 19.8882Z" fill="#FF5CAB"/>
<path d="M219.834 25.9331L221.363 24.9754L218.894 20.7552L217.418 21.8095L219.834 25.9331Z" fill="#FF5CAB"/>
<path d="M222.985 32.3413L224.584 31.5213C224.584 31.5213 224.13 30.382 223.559 29.3043C223.002 28.2031 222.455 27.1136 222.455 27.1136L220.891 28.0215C220.891 28.0215 221.435 29.0963 221.971 30.1624C222.534 31.2226 222.985 32.3413 222.985 32.3413Z" fill="#FF5CAB"/>
<path d="M225.843 38.9805L227.457 38.2044L225.53 33.7352L223.916 34.5113L225.843 38.9805Z" fill="#FF5CAB"/>
<path d="M228.934 45.6021L230.498 44.6795C230.498 44.6795 229.941 43.6222 229.393 42.5533C228.831 41.4902 228.398 40.3685 228.398 40.3685L226.793 41.1944C226.793 41.1944 227.241 42.3366 227.815 43.4202C228.377 44.5126 228.934 45.6021 228.934 45.6021Z" fill="#FF5CAB"/>
<path d="M232.594 51.9224L234.05 50.83C234.05 50.83 231.566 46.7737 231.566 46.7679L230.043 47.7402L232.594 51.9224Z" fill="#FF5CAB"/>
<path d="M236.978 57.7119L238.281 56.4262C238.281 56.4262 237.447 55.6062 236.779 54.6251C236.076 53.6762 235.373 52.7273 235.373 52.7273L233.965 53.8841C233.965 53.8841 234.685 54.8594 235.417 55.8434C236.106 56.8626 236.978 57.7119 236.978 57.7119Z" fill="#FF5CAB"/>
<path d="M242.107 62.8086L243.19 61.3179C243.19 61.3179 239.723 58.2428 239.808 58.1344L238.569 59.4933C238.472 59.5958 242.107 62.8086 242.107 62.8086Z" fill="#FF5CAB"/>
<path d="M248.075 66.7852L248.863 65.0924C248.863 65.0924 247.876 64.5213 246.88 63.9619C245.89 63.3879 244.997 62.6557 244.997 62.6557L243.998 64.2284C243.998 64.2284 244.944 64.9928 245.981 65.5991C247.023 66.1877 248.075 66.7852 248.075 66.7852Z" fill="#FF5CAB"/>
<path d="M254.674 69.4097L255.113 67.5704C255.113 67.5704 254.035 67.2541 252.952 66.929C251.903 66.4956 250.866 66.0504 250.866 66.0504L250.181 67.8047C250.181 67.8047 251.282 68.2645 252.386 68.7361C253.535 69.067 254.674 69.4097 254.674 69.4097Z" fill="#FF5CAB"/>
<path d="M261.632 70.5078L261.714 68.6246C261.714 68.6246 260.593 68.5426 259.471 68.4665C258.367 68.2761 257.26 68.0741 257.26 68.0741L256.935 69.9396C256.935 69.9396 258.103 70.1417 259.272 70.3467C260.449 70.4287 261.632 70.5078 261.632 70.5078Z" fill="#FF5CAB"/>
<path d="M268.635 70.2033L268.415 68.3289C268.415 68.3289 267.291 68.4548 266.172 68.5983C265.047 68.6335 263.917 68.6686 263.917 68.6686L263.94 70.5605C263.94 70.5605 265.121 70.5283 266.301 70.4873C267.467 70.3468 268.635 70.2033 268.635 70.2033Z" fill="#FF5CAB"/>
<path d="M275.485 68.7152L275.02 66.8906C275.02 66.8906 273.921 67.2011 272.823 67.5057C271.716 67.74 270.603 67.9743 270.603 67.9743L270.916 69.8398C270.916 69.8398 272.064 69.5997 273.224 69.3566C274.349 69.0315 275.485 68.7152 275.485 68.7152Z" fill="#FF5CAB"/>
<path d="M282.083 66.3048L281.406 64.5505C281.406 64.5505 280.37 65.0425 279.292 65.4408C278.217 65.8303 277.145 66.2228 277.145 66.2228L277.69 68.0327C277.69 68.0327 278.794 67.6256 279.901 67.2185C281.014 66.8144 282.083 66.3077 282.083 66.3048Z" fill="#FF5CAB"/>
<path d="M288.377 63.1687L287.56 61.4906C287.56 61.4906 286.564 62.0939 285.522 62.5888C284.494 63.1101 283.457 63.6344 283.457 63.6344L284.183 65.3652C284.183 65.3652 285.244 64.8293 286.301 64.2992C287.37 63.7867 288.377 63.1716 288.377 63.1687Z" fill="#FF5CAB"/>
<path d="M294.389 59.4574L293.435 57.8584C293.435 57.8584 292.483 58.5378 291.493 59.1353C290.503 59.7532 289.519 60.3741 289.519 60.3741L290.401 62.0288C290.401 62.0288 291.396 61.3962 292.404 60.7607C293.414 60.1398 294.384 59.4574 294.389 59.4574Z" fill="#FF5CAB"/>
<path d="M300.106 55.2818L299.052 53.7618C299.052 53.7618 298.129 54.491 297.195 55.1792C296.252 55.8733 295.315 56.5674 295.315 56.5674L296.302 58.1431C296.302 58.1431 297.257 57.4402 298.211 56.7227C299.178 56.0315 300.1 55.2818 300.106 55.2818Z" fill="#FF5CAB"/>
<path d="M305.531 50.6866L304.38 49.2457C304.38 49.2457 303.513 50.0481 302.62 50.8008C301.726 51.5593 300.833 52.315 300.833 52.315L301.92 53.8174C301.92 53.8174 302.833 53.0471 303.738 52.274C304.646 51.4979 305.531 50.6866 305.531 50.6866Z" fill="#FF5CAB"/>
<path d="M310.653 45.7131L309.417 44.3571C309.417 44.3571 308.614 45.2269 307.759 46.0382C306.919 46.8553 306.072 47.6812 306.072 47.6812L307.255 49.1016C307.255 49.1016 308.108 48.261 308.978 47.4264C309.839 46.5917 310.653 45.7131 310.653 45.7131Z" fill="#FF5CAB"/>
<path d="M315.429 40.3362L314.088 39.0944C314.088 39.0944 313.329 39.9994 312.571 40.9073C311.786 41.7888 310.995 42.6704 310.995 42.6704L312.272 43.9941C312.272 43.9941 313.072 43.095 313.871 42.193C314.659 41.2675 315.429 40.3362 315.429 40.3362Z" fill="#FF5CAB"/>
<path d="M319.755 34.6805L318.443 33.4065C318.443 33.4065 317.652 34.3203 316.882 35.3629C316.191 36.3206 315.511 37.2724 315.511 37.2724L316.903 38.4556C316.903 38.4556 317.611 37.4628 318.323 36.4641C318.985 35.5884 319.755 34.6805 319.755 34.6805Z" fill="#FF5CAB"/>
<path d="M324.598 29.6618L323.439 28.2326C323.439 28.2326 322.56 29.0585 321.687 29.8814C320.85 30.7571 320.015 31.6357 320.015 31.6357L321.283 32.9624C321.283 32.9624 322.091 32.119 322.897 31.2667C323.749 30.4672 324.598 29.6618 324.598 29.6618Z" fill="#FF5CAB"/>
<path d="M329.985 25.3413L329.013 23.7569C329.013 23.7569 328.035 24.451 327.057 25.1363C326.137 25.9153 325.211 26.6797 325.211 26.6797L326.31 28.1616C326.31 28.1616 327.212 27.4178 328.102 26.6797C329.045 26.012 329.985 25.3413 329.985 25.3413Z" fill="#FF5CAB"/>
<path d="M335.863 21.8938L335.139 20.163C335.072 20.0194 330.951 22.4444 330.951 22.4444L331.853 24.0786C331.853 24.0786 335.804 21.7474 335.863 21.8938Z" fill="#FF5CAB"/>
<path d="M342.195 19.6479L341.811 17.7911C341.811 17.7911 337.216 19.0534 337.283 19.2291L337.901 21.0039C337.857 20.8311 342.195 19.6479 342.195 19.6479Z" fill="#FF5CAB"/>
<path d="M348.781 18.9718L348.825 17.0769C348.828 17.1238 347.63 16.869 346.458 17.1032C345.272 17.238 344.092 17.3786 344.092 17.3786L344.338 19.25C344.338 19.25 345.451 19.1241 346.558 18.9893C347.668 18.7697 348.781 19.0215 348.781 18.9718Z" fill="#FF5CAB"/>
<path d="M355.321 20.0254L355.798 18.1979C355.798 18.1979 351.188 16.959 351.145 17.2226L350.957 19.1087C351.001 18.8568 355.321 20.0254 355.321 20.0254Z" fill="#FF5CAB"/>
<path d="M361.5 22.6318L362.341 20.9654L358.018 18.8978L357.415 20.6814L361.5 22.6318Z" fill="#FF5CAB"/>
<path d="M367.082 26.5796L368.189 25.0977C368.183 25.0977 367.967 24.8868 367.598 24.6291C367.226 24.3713 366.74 24.0199 366.251 23.6714C365.269 22.9714 364.291 22.2744 364.291 22.2744L363.36 23.8764L367.082 26.5796Z" fill="#FF5CAB"/>
<path d="M372.05 31.4478L373.333 30.1298L369.88 26.7472L368.717 28.1793L372.05 31.4478Z" fill="#FF5CAB"/>
<path d="M377.002 36.6045L378.205 35.2104L374.937 31.8044L373.677 33.134L377.002 36.6045Z" fill="#FF5CAB"/>
<path d="M382.303 41.3965L383.393 39.897L379.884 36.775L378.721 38.2071L382.303 41.3965Z" fill="#FF5CAB"/>
<path d="M388.017 45.6406L388.945 44.0269C388.945 44.0269 387.985 43.3797 387.062 42.6709C386.128 41.9798 385.194 41.2827 385.194 41.2827L384.154 42.8174C384.154 42.8174 385.112 43.5378 386.078 44.2495C387.033 44.967 388.017 45.6406 388.017 45.6406Z" fill="#FF5CAB"/>
<path d="M394.179 49.125L394.917 47.4C394.917 47.4 393.857 46.9607 392.864 46.372C391.871 45.7834 390.884 45.1859 390.884 45.1859L390.005 46.8377C390.005 46.8377 391.036 47.4469 392.055 48.0648C393.075 48.674 394.176 49.125 394.179 49.125Z" fill="#FF5CAB"/>
<path d="M400.727 51.7349L401.214 49.9162C401.214 49.9162 396.894 48.484 396.946 48.3464L396.285 50.1095C396.226 50.2559 400.727 51.7349 400.727 51.7349Z" fill="#FF5CAB"/>
<path d="M407.598 53.1899L407.797 51.3068C407.797 51.3068 407.513 51.2833 407.097 51.2336C406.669 51.2131 406.116 51.134 405.568 50.9846C404.458 50.7415 403.354 50.5014 403.354 50.5014L402.953 52.3435C402.953 52.3435 404.107 52.6013 405.264 52.8561C405.832 53.0025 406.42 53.0786 406.863 53.1138C407.305 53.1636 407.598 53.1899 407.598 53.1899Z" fill="#FF5CAB"/>
<path d="M414.609 53.4123L414.501 51.5262C414.501 51.5262 413.37 51.5907 412.243 51.576C411.115 51.5702 409.991 51.5438 409.991 51.5438L409.891 53.4358C409.891 53.4358 411.077 53.4738 412.255 53.4738C413.435 53.4855 414.609 53.4123 414.609 53.4123Z" fill="#FF5CAB"/>
<path d="M421.541 52.37L421.161 50.5249C421.161 50.5249 416.715 51.4152 416.697 51.3069L416.908 53.19C416.923 53.3042 421.541 52.37 421.541 52.37Z" fill="#FF5CAB"/>
<path d="M428.233 50.2735L427.645 48.484C427.645 48.484 426.57 48.9087 425.48 49.2601C424.408 49.6409 423.307 49.9454 423.307 49.9454L423.779 51.7788C423.779 51.7788 424.912 51.4625 426.019 51.0642C427.147 50.7099 428.233 50.2705 428.233 50.2735Z" fill="#FF5CAB"/>
<path d="M434.668 47.567L433.989 45.8186L429.734 47.6637L430.381 49.4297L434.668 47.567Z" fill="#FF5CAB"/>
<path d="M441.053 45.0977L440.514 43.2936C440.514 43.2936 439.387 43.6451 438.3 44.0697C437.205 44.4944 436.106 44.9161 436.106 44.9161L436.742 46.6968C436.742 46.6968 437.823 46.278 438.892 45.8592C439.955 45.4404 441.047 45.0977 441.053 45.0977Z" fill="#FF5CAB"/>
<path d="M447.593 43.2997L447.253 41.4458C447.253 41.4458 446.093 41.6538 444.963 41.9496C443.829 42.2688 442.696 42.588 442.696 42.588L443.182 44.4126C443.182 44.4126 444.28 44.108 445.373 43.7946C446.477 43.5106 447.593 43.2997 447.593 43.2997Z" fill="#FF5CAB"/>
<path d="M454.247 42.4503L454.206 40.5614C454.206 40.5614 453.005 40.5086 451.845 40.7107C450.68 40.8601 449.511 41.0094 449.511 41.0094L449.775 42.8896C449.775 42.8896 450.89 42.7315 452.018 42.588C453.134 42.4035 454.247 42.4503 454.247 42.4503Z" fill="#FF5CAB"/>
<path d="M460.824 42.9604L461.275 41.1183C461.302 40.9074 456.534 40.5033 456.534 40.5033L456.426 42.4011C456.426 42.4011 460.854 42.7642 460.824 42.9604Z" fill="#FF5CAB"/>
<path d="M467.001 45.3413L467.917 43.6925C467.993 43.5636 463.586 41.5662 463.551 41.6951L462.936 43.4933C462.965 43.3732 467.068 45.2271 467.001 45.3413Z" fill="#FF5CAB"/>
<path d="M472.035 49.8394L473.347 48.5302C473.347 48.5302 470.049 44.8518 469.861 45.0861L468.801 46.6354C468.965 46.4187 472.032 49.8394 472.035 49.8394Z" fill="#FF5CAB"/>
<path d="M475.424 55.8433L477.014 54.9939C477.014 54.9939 476.894 54.7011 476.724 54.2559C476.528 53.8313 476.387 53.1899 476.015 52.6832C475.359 51.6172 474.712 50.5482 474.712 50.5482L473.297 51.705C473.297 51.705 473.895 52.7037 474.498 53.6965C474.844 54.1651 474.967 54.7597 475.16 55.155C475.309 55.568 475.424 55.8433 475.424 55.8433Z" fill="#FF5CAB"/>
<path d="M318.194 373.966H202.687V301.391H318.194V373.966Z" fill="#FF5CAB"/>
<path d="M323.56 308.215H197.705V299.115H323.56V308.215Z" fill="#FF5CAB"/>
<path d="M300.583 373.966H185.061V301.391H300.583V373.966Z" fill="#82A816"/>
<path d="M305.95 308.215H180.092V299.115H305.95V308.215Z" fill="#75910F"/>
<path d="M202.408 318.395C202.408 319.496 203.577 320.396 205.02 320.396H274.003C275.441 320.396 276.609 319.496 276.609 318.395C276.609 317.3 275.441 316.41 274.003 316.41H205.02C203.577 316.41 202.408 317.3 202.408 318.395Z" fill="#F97C28"/>
<path d="M204.868 318.395C204.868 317.3 206.022 316.41 207.472 316.41H274.003C275.441 316.41 276.609 317.3 276.609 318.395C276.609 319.496 275.441 320.396 274.003 320.396H207.472C206.022 320.396 204.868 319.496 204.868 318.395Z" fill="#75910F"/>
<path d="M318.194 311.597H202.687V308.214H318.194V311.597Z" fill="#FF5CAB"/>
<path d="M300.583 311.597H185.061V308.214H300.583V311.597Z" fill="#62770B"/>
<path d="M194.439 247.404H78.9202V206.312H194.439V247.404Z" fill="#FEB824"/>
<path d="M199.802 214.142H73.9502V203.704H199.802V214.142Z" fill="#FDD95F"/>
<path d="M176.82 247.404H61.3062V206.312H176.82V247.404Z" fill="#FDD95F"/>
<path d="M182.185 214.142H56.3362V203.704H182.185V214.142Z" fill="#FFDE80"/>
<path d="M78.6477 225.825C78.6477 227.085 79.8162 228.101 81.2542 228.101H150.242C151.678 228.101 152.852 227.085 152.852 225.825C152.852 224.563 151.678 223.544 150.242 223.544H81.2542C79.8162 223.544 78.6477 224.563 78.6477 225.825Z" fill="#F97C28"/>
<path d="M81.105 225.825C81.105 224.563 82.2589 223.544 83.7116 223.544H150.243C151.678 223.544 152.852 224.563 152.852 225.825C152.852 227.085 151.678 228.101 150.243 228.101H83.7116C82.2589 228.101 81.105 227.085 81.105 225.825Z" fill="#FC9627"/>
<path d="M194.439 218.02H78.9202V214.142H194.439V218.02Z" fill="#DD931D"/>
<path d="M176.82 218.02H61.3062V214.142H176.82V218.02Z" fill="#EDA320"/>
<path d="M174.381 305.992H63.2283V274.192L174.381 282.398V305.992Z" fill="#E6E4F7"/>
<path d="M174.381 305.992H197.922V282.398H174.381V305.992Z" fill="#D2CDF9"/>
<path d="M110.924 285.617L174.38 292.754V284.115L110.924 285.617Z" fill="#D2CDF9"/>
<path d="M214.436 292.754L34.5554 273.697V247.403H214.436V292.754Z" fill="#F2F2FC"/>
<path d="M214.436 292.754L189.009 292.713L188.901 247.403H214.436V292.754Z" fill="#D2CDF9"/>
<path d="M188.9 247.403H34.5554L188.9 257.542V247.403Z" fill="#D2CDF9"/>
<path d="M191.411 294.225L128.07 285.21L196.422 285.617L191.411 294.225Z" fill="#D2CDF9"/>
<path d="M207.686 349.175H44.7102V305.992H207.686V349.175Z" fill="#E6E4F7"/>
<path d="M207.686 351.053H181.776V305.992H207.686V351.053Z" fill="#BFBEED"/>
<path d="M181.775 305.992H145.908L183.653 315.381L181.775 305.992Z" fill="#BFBEED"/>
<path d="M221.951 376.743H60.0996V349.176H221.951V376.743Z" fill="#F2F2FC"/>
<path d="M221.952 376.743H170.128V349.176H221.952V376.743Z" fill="#BFBEED"/>
<path d="M170.128 349.175H114.55L170.128 355.938V349.175Z" fill="#BFBEED"/>
<path d="M60.0996 360.205L139.338 362.957H60.0996V360.205Z" fill="#D2CDF9"/>
<path d="M44.7102 305.992H114.551L44.7102 310.684V305.992Z" fill="#D2CDF9"/>
<path d="M63.2283 294.199L81.0026 292.161L63.2283 290.09V294.199Z" fill="#D2CDF9"/>
<path d="M154.747 204.32H83.8752V158.55H154.747V204.32Z" fill="#09407C"/>
<path d="M195.898 204.32H140.039V158.55H195.898V204.32Z" fill="#012F6A"/>
<path d="M195.707 158.55L203.82 142.416H148.465L140.496 158.55H195.707Z" fill="#09407C"/>
<path d="M140.039 158.549L136.012 173.579H83.8752V158.549H140.039Z" fill="#012F6A"/>
<path d="M83.8748 158.55L69.5271 169.919H128.28L140.038 158.55H83.8748Z" fill="#09407C"/>
<path d="M189.745 179.114C189.745 179.818 189.103 180.389 188.301 180.389H149.871C149.074 180.389 148.424 179.818 148.424 179.114C148.424 178.412 149.074 177.847 149.871 177.847H188.301C189.103 177.847 189.745 178.412 189.745 179.114Z" fill="#7371CC"/>
<path d="M188.38 179.114C188.38 178.412 187.733 177.847 186.933 177.847H149.871C149.074 177.847 148.424 178.412 148.424 179.114C148.424 179.818 149.074 180.389 149.871 180.389H186.933C187.733 180.389 188.38 179.818 188.38 179.114Z" fill="#B4A4F5"/>
<path d="M189.745 183.903C189.745 184.604 189.103 185.174 188.301 185.174H149.871C149.074 185.174 148.424 184.604 148.424 183.903C148.424 183.201 149.074 182.636 149.871 182.636H188.301C189.103 182.636 189.745 183.201 189.745 183.903Z" fill="#7371CC"/>
<path d="M188.38 183.903C188.38 183.201 187.733 182.636 186.933 182.636H149.871C149.074 182.636 148.424 183.201 148.424 183.903C148.424 184.604 149.074 185.174 149.871 185.174H186.933C187.733 185.174 188.38 184.604 188.38 183.903Z" fill="#B4A4F5"/>
<path d="M312.439 257.399H224.581V234.84H312.439V257.399Z" fill="#E6E4F7"/>
<path d="M312.439 257.399H331.042V234.84H312.439V257.399Z" fill="#BFBEED"/>
<path d="M262.282 236.023L312.439 241.67V234.84L262.282 236.023Z" fill="#BFBEED"/>
<path d="M318.584 234.839H230.732V207.928H318.584V234.839Z" fill="#F2F2FC"/>
<path d="M318.583 234.839H337.186V207.928H318.583V234.839Z" fill="#D2CDF9"/>
<path d="M230.732 221.389H274.665L230.732 225.942V221.389Z" fill="#D2CDF9"/>
<path d="M331.566 209.843H213.118V192.727H331.566V209.843Z" fill="#E6E4F7"/>
<path d="M331.566 209.843H305.636V192.727H331.566V209.843Z" fill="#D2CDF9"/>
<path d="M305.635 192.727H277.816L305.635 196.925V192.727Z" fill="#D2CDF9"/>
<path d="M213.118 199.575L271.106 201.288H213.118V199.575Z" fill="#D2CDF9"/>
<path d="M327.733 274.518H209.288V257.399H327.733V274.518Z" fill="#F2F2FC"/>
<path d="M327.733 274.518H301.796V257.399H327.733V274.518Z" fill="#BFBEED"/>
<path d="M301.796 257.399H273.976L301.796 261.597V257.399Z" fill="#BFBEED"/>
<path d="M209.288 264.247L267.273 265.959H209.288V264.247Z" fill="#D2CDF9"/>
<path d="M311.575 192.727H257.441V176.148H311.575V192.727Z" fill="#F2F2FC"/>
<path d="M311.575 192.727H323.041V176.148H311.575V192.727Z" fill="#D2CDF9"/>
<path d="M257.441 184.44H284.517L257.441 187.243V184.44Z" fill="#D2CDF9"/>
<path d="M318.584 299.329H230.732V272.421H318.584V299.329Z" fill="#E6E4F7"/>
<path d="M318.583 299.329H337.186V272.421H318.583V299.329Z" fill="#BFBEED"/>
<path d="M230.732 285.874H274.665L230.732 290.423V285.874Z" fill="#D2CDF9"/>
<path d="M529.382 136.783H417.249V102.442H529.382V136.783Z" fill="#F2F2FC"/>
<path d="M529.381 136.783H553.13V102.442H529.381V136.783Z" fill="#D2CDF9"/>
<path d="M537.342 164.067H425.202V135.275H537.342V164.067Z" fill="#E6E4F7"/>
<path d="M537.342 164.067H561.087V135.275H537.342V164.067Z" fill="#BFBEED"/>
<path d="M473.321 136.784L537.342 143.991V135.276L473.321 136.784Z" fill="#BFBEED"/>
<path d="M543.782 223.168H431.645V191.087L543.782 199.361V223.168Z" fill="#E6E4F7"/>
<path d="M543.782 223.168H567.525V199.361H543.782V223.168Z" fill="#D2CDF9"/>
<path d="M479.765 202.609L543.783 209.811V201.095L479.765 202.609Z" fill="#D2CDF9"/>
<path d="M584.192 209.811L402.724 190.584V164.068H584.192V209.811Z" fill="#F2F2FC"/>
<path d="M584.192 209.811L558.537 209.779L558.432 164.068H584.192V209.811Z" fill="#D2CDF9"/>
<path d="M558.431 164.067H402.724L558.431 174.297V164.067Z" fill="#D2CDF9"/>
<path d="M560.956 211.297L497.055 202.201L566.014 202.609L560.956 211.297Z" fill="#D2CDF9"/>
<path d="M577.375 266.736H412.955V223.169H577.375V266.736Z" fill="#F2F2FC"/>
<path d="M577.375 268.631H551.236V223.169H577.375V268.631Z" fill="#BFBEED"/>
<path d="M551.236 223.168H515.058L553.131 232.64L551.236 223.168Z" fill="#BFBEED"/>
<path d="M591.772 308.408H428.489V266.736H591.772V308.408Z" fill="#E6E4F7"/>
<path d="M591.772 308.408H539.486V266.736H591.772V308.408Z" fill="#D2CDF9"/>
<path d="M539.486 266.736H483.417L539.486 276.966V266.736Z" fill="#D2CDF9"/>
<path d="M330.354 119.618H386.424L330.354 125.42V119.618Z" fill="#D2CDF9"/>
<path d="M344.748 211.267L362.684 209.211L344.748 207.125V211.267Z" fill="#D2CDF9"/>
<path d="M529.382 136.783H417.249V102.442H529.382V136.783Z" fill="#F2F2FC"/>
<path d="M529.381 136.783H553.13V102.442H529.381V136.783Z" fill="#D2CDF9"/>
<path d="M537.342 164.067H425.202V135.275H537.342V164.067Z" fill="#E6E4F7"/>
<path d="M537.342 164.067H561.087V135.275H537.342V164.067Z" fill="#BFBEED"/>
<path d="M473.321 136.784L537.342 143.991V135.276L473.321 136.784Z" fill="#BFBEED"/>
<path d="M543.782 223.168H431.645V191.087L543.782 199.361V223.168Z" fill="#E6E4F7"/>
<path d="M543.782 223.168H567.525V199.361H543.782V223.168Z" fill="#D2CDF9"/>
<path d="M479.765 202.609L543.783 209.811V201.095L479.765 202.609Z" fill="#D2CDF9"/>
<path d="M584.192 209.811L402.724 190.584V164.068H584.192V209.811Z" fill="#F2F2FC"/>
<path d="M584.192 209.811L558.537 209.779L558.432 164.068H584.192V209.811Z" fill="#D2CDF9"/>
<path d="M558.431 164.067H402.724L558.431 174.297V164.067Z" fill="#D2CDF9"/>
<path d="M560.956 211.297L497.055 202.201L566.014 202.609L560.956 211.297Z" fill="#D2CDF9"/>
<path d="M577.375 266.736H412.955V223.169H577.375V266.736Z" fill="#F2F2FC"/>
<path d="M577.375 268.631H551.236V223.169H577.375V268.631Z" fill="#BFBEED"/>
<path d="M551.236 223.168H515.058L553.131 232.64L551.236 223.168Z" fill="#BFBEED"/>
<path d="M591.772 308.408H428.489V266.736H591.772V308.408Z" fill="#E6E4F7"/>
<path d="M591.772 308.408H539.486V266.736H591.772V308.408Z" fill="#D2CDF9"/>
<path d="M539.486 266.736H483.417L539.486 276.966V266.736Z" fill="#D2CDF9"/>
<path d="M330.354 119.618H386.424L330.354 125.42V119.618Z" fill="#D2CDF9"/>
<path d="M344.748 211.267L362.684 209.211L344.748 207.125V211.267Z" fill="#D2CDF9"/>
<path d="M529.382 136.783H417.249V102.442H529.382V136.783Z" fill="#F2F2FC"/>
<path d="M529.381 136.783H553.13V102.442H529.381V136.783Z" fill="#D2CDF9"/>
<path d="M537.342 164.067H425.202V135.275H537.342V164.067Z" fill="#E6E4F7"/>
<path d="M537.342 164.067H561.087V135.275H537.342V164.067Z" fill="#BFBEED"/>
<path d="M473.321 136.784L537.342 143.991V135.276L473.321 136.784Z" fill="#BFBEED"/>
<path d="M543.782 223.168H431.645V191.087L543.782 199.361V223.168Z" fill="#E6E4F7"/>
<path d="M543.782 223.168H567.525V199.361H543.782V223.168Z" fill="#D2CDF9"/>
<path d="M479.765 202.609L543.783 209.811V201.095L479.765 202.609Z" fill="#D2CDF9"/>
<path d="M584.192 209.811L402.724 190.584V164.068H584.192V209.811Z" fill="#F2F2FC"/>
<path d="M584.192 209.811L558.537 209.779L558.432 164.068H584.192V209.811Z" fill="#D2CDF9"/>
<path d="M558.431 164.067H402.724L558.431 174.297V164.067Z" fill="#D2CDF9"/>
<path d="M560.956 211.297L497.055 202.201L566.014 202.609L560.956 211.297Z" fill="#D2CDF9"/>
<path d="M577.375 266.736H412.955V223.169H577.375V266.736Z" fill="#F2F2FC"/>
<path d="M577.375 268.631H551.236V223.169H577.375V268.631Z" fill="#BFBEED"/>
<path d="M551.236 223.168H515.058L553.131 232.64L551.236 223.168Z" fill="#BFBEED"/>
<path d="M591.772 308.408H428.489V266.736H591.772V308.408Z" fill="#E6E4F7"/>
<path d="M591.772 308.408H539.486V266.736H591.772V308.408Z" fill="#D2CDF9"/>
<path d="M539.486 266.736H483.417L539.486 276.966V266.736Z" fill="#D2CDF9"/>
<path d="M412.955 242.873L492.882 247.034H412.955V242.873Z" fill="#D2CDF9"/>
<path d="M330.354 119.618H386.424L330.354 125.42V119.618Z" fill="#D2CDF9"/>
<path d="M344.748 211.267L362.684 209.211L344.748 207.125V211.267Z" fill="#D2CDF9"/>
<path d="M537.035 376.617H411.245V295.39H537.035V376.617Z" fill="#FDD95F"/>
<path d="M610.058 376.617H510.919V295.39H610.058V376.617Z" fill="#FEB824"/>
<path d="M511.731 295.391L533.884 322.068L610.033 321.933L609.713 295.391H511.731Z" fill="#EDA320"/>
<path d="M609.713 295.391L634.739 315.566H532.252L511.731 295.391H609.713Z" fill="#FDD95F"/>
<path d="M510.92 295.391L503.78 322.068H411.245V295.391H510.92Z" fill="#FEB824"/>
<path d="M411.244 295.391L385.785 315.566H490.044L510.919 295.391H411.244Z" fill="#FFDE80"/>
<path d="M599.152 331.891C599.152 333.136 597.998 334.149 596.572 334.149H528.383C526.96 334.149 525.809 333.136 525.809 331.891C525.809 330.641 526.96 329.636 528.383 329.636H596.572C597.998 329.636 599.152 330.641 599.152 331.891Z" fill="#F97C28"/>
<path d="M596.724 331.891C596.724 330.641 595.567 329.636 594.147 329.636H528.383C526.96 329.636 525.809 330.641 525.809 331.891C525.809 333.136 526.96 334.149 528.383 334.149H594.147C595.567 334.149 596.724 333.136 596.724 331.891Z" fill="#FC9627"/>
<path d="M599.152 340.383C599.152 341.632 597.998 342.638 596.572 342.638H528.383C526.96 342.638 525.809 341.632 525.809 340.383C525.809 339.139 526.96 338.125 528.383 338.125H596.572C597.998 338.125 599.152 339.139 599.152 340.383Z" fill="#F97C28"/>
<path d="M596.724 340.383C596.724 339.139 595.567 338.125 594.147 338.125H528.383C526.96 338.125 525.809 339.139 525.809 340.383C525.809 341.632 526.96 342.638 528.383 342.638H594.147C595.567 342.638 596.724 341.632 596.724 340.383Z" fill="#FC9627"/>
<path d="M642.69 359.95H562.476V338.296H642.69V359.95Z" fill="#F2F2FC"/>
<path d="M642.69 359.95H659.67V338.296H642.69V359.95Z" fill="#BFBEED"/>
<path d="M648.378 377.142H568.164V358.987H648.378V377.142Z" fill="#F2F2FC"/>
<path d="M648.377 377.142H665.358V358.987H648.377V377.142Z" fill="#BFBEED"/>
<path d="M602.579 359.951L648.377 364.488V358.987L602.579 359.951Z" fill="#BFBEED"/>
<path d="M562.476 349.123H602.579L562.476 352.778V349.123Z" fill="#D2CDF9"/>
<path d="M654.244 325.193H574.039V303.55H654.244V325.193Z" fill="#F2F2FC"/>
<path d="M654.244 325.193H671.228V303.55H654.244V325.193Z" fill="#BFBEED"/>
<path d="M659.934 342.387H579.732V324.241H659.934V342.387Z" fill="#F2F2FC"/>
<path d="M659.934 342.387H676.917V324.241H659.934V342.387Z" fill="#BFBEED"/>
<path d="M614.144 325.192L659.934 329.731V324.24L614.144 325.192Z" fill="#BFBEED"/>
<path d="M574.039 314.375H614.145L574.039 318.036V314.375Z" fill="#D2CDF9"/>
<path d="M572.943 362.984H506.184V344.967H572.943V362.984Z" fill="#F2F2FC"/>
<path d="M572.943 362.984H587.08V344.967H572.943V362.984Z" fill="#BFBEED"/>
<path d="M577.682 377.294H510.922V362.191H577.682V377.294Z" fill="#F2F2FC"/>
<path d="M577.681 377.294H591.809V362.191H577.681V377.294Z" fill="#BFBEED"/>
<path d="M539.565 362.984L577.682 366.765V362.191L539.565 362.984Z" fill="#BFBEED"/>
<path d="M506.184 353.978H539.565L506.184 357.019V353.978Z" fill="#D2CDF9"/>
<path d="M582.564 334.063H515.813V316.046H582.564V334.063Z" fill="#F2F2FC"/>
<path d="M582.564 334.063H596.698V316.046H582.564V334.063Z" fill="#BFBEED"/>
<path d="M587.302 348.367H520.543V333.27H587.302V348.367Z" fill="#F2F2FC"/>
<path d="M587.303 348.367H601.437V333.27H587.303V348.367Z" fill="#BFBEED"/>
<path d="M549.192 334.063L587.303 337.844V333.27L549.192 334.063Z" fill="#BFBEED"/>
<path d="M515.813 325.057H549.191L515.813 328.104V325.057Z" fill="#D2CDF9"/>
<path d="M508.87 83.5166H431.93V59.9494H508.87V83.5166Z" fill="#F2F2FC"/>
<path d="M508.869 83.5166H525.165V59.9494H508.869V83.5166Z" fill="#D2CDF9"/>
<path d="M514.332 102.234H437.386V82.4716H514.332V102.234Z" fill="#E6E4F7"/>
<path d="M514.332 102.234H530.624V82.4716H514.332V102.234Z" fill="#BFBEED"/>
<path d="M470.401 83.5168L514.332 88.4575V82.4713L470.401 83.5168Z" fill="#BFBEED"/>
<path d="M431.93 71.7343H470.402L431.93 75.7202V71.7343Z" fill="#D2CDF9"/>
<path d="M508.87 83.5166H431.93V59.9494H508.87V83.5166Z" fill="#F2F2FC"/>
<path d="M508.869 83.5166H525.165V59.9494H508.869V83.5166Z" fill="#D2CDF9"/>
<path d="M514.332 102.234H437.386V82.4716H514.332V102.234Z" fill="#E6E4F7"/>
<path d="M514.332 102.234H530.624V82.4716H514.332V102.234Z" fill="#BFBEED"/>
<path d="M470.401 83.5168L514.332 88.4575V82.4713L470.401 83.5168Z" fill="#BFBEED"/>
<path d="M431.93 71.7343H470.402L431.93 75.7202V71.7343Z" fill="#D2CDF9"/>
<path d="M508.87 83.5166H431.93V59.9494H508.87V83.5166Z" fill="#F2F2FC"/>
<path d="M508.869 83.5166H525.165V59.9494H508.869V83.5166Z" fill="#D2CDF9"/>
<path d="M514.332 102.234H437.386V82.4716H514.332V102.234Z" fill="#E6E4F7"/>
<path d="M514.332 102.234H530.624V82.4716H514.332V102.234Z" fill="#BFBEED"/>
<path d="M470.401 83.5168L514.332 88.4575V82.4713L470.401 83.5168Z" fill="#BFBEED"/>
<path d="M431.93 71.7343H470.402L431.93 75.7202V71.7343Z" fill="#D2CDF9"/>
<path d="M519.966 41.2295H443.018V17.6623H519.966V41.2295Z" fill="#F2F2FC"/>
<path d="M519.966 41.2295H536.252V17.6623H519.966V41.2295Z" fill="#D2CDF9"/>
<path d="M525.425 59.9502H448.479V40.1933H525.425V59.9502Z" fill="#E6E4F7"/>
<path d="M525.425 59.9502H541.714V40.1933H525.425V59.9502Z" fill="#BFBEED"/>
<path d="M481.491 41.2302L525.425 46.1738V40.1935L481.491 41.2302Z" fill="#BFBEED"/>
<path d="M519.966 41.2295H443.018V17.6623H519.966V41.2295Z" fill="#F2F2FC"/>
<path d="M519.966 41.2295H536.252V17.6623H519.966V41.2295Z" fill="#D2CDF9"/>
<path d="M525.425 59.9502H448.479V40.1933H525.425V59.9502Z" fill="#E6E4F7"/>
<path d="M525.425 59.9502H541.714V40.1933H525.425V59.9502Z" fill="#BFBEED"/>
<path d="M481.491 41.2302L525.425 46.1738V40.1935L481.491 41.2302Z" fill="#BFBEED"/>
<path d="M519.966 41.2295H443.018V17.6623H519.966V41.2295Z" fill="#F2F2FC"/>
<path d="M519.966 41.2295H536.252V17.6623H519.966V41.2295Z" fill="#D2CDF9"/>
<path d="M525.425 59.9502H448.479V40.1933H525.425V59.9502Z" fill="#E6E4F7"/>
<path d="M525.425 59.9502H541.714V40.1933H525.425V59.9502Z" fill="#BFBEED"/>
<path d="M481.491 41.2302L525.425 46.1738V40.1935L481.491 41.2302Z" fill="#BFBEED"/>
<path d="M430.393 369.712C430.393 375.598 425.625 380.372 419.735 380.372H282.915C277.026 380.372 272.258 375.598 272.258 369.712V117.912C272.258 112.021 277.026 107.248 282.915 107.248H419.735C425.625 107.248 430.393 112.021 430.393 117.912V369.712Z" fill="#012F6A"/>
<path d="M430.393 342.402H272.258V135.168H430.393V342.402Z" fill="#CBCAFE"/>
<path d="M389.522 118.855C389.522 119.575 388.943 120.161 388.222 120.161H314.428C313.704 120.161 313.119 119.575 313.119 118.855C313.119 118.132 313.704 117.548 314.428 117.548H388.222C388.943 117.548 389.522 118.132 389.522 118.855Z" fill="#CBCAFE"/>
<path d="M386.195 354.165C386.195 356.251 384.505 357.946 382.414 357.946H323.779C321.693 357.946 320.006 356.251 320.006 354.165C320.006 352.081 321.693 350.388 323.779 350.388H382.414C384.505 350.388 386.195 352.081 386.195 354.165Z" fill="#CBCAFE"/>
<path d="M297.154 158.38C297.796 158.38 298.217 158.215 298.428 157.879C298.639 157.539 298.742 156.974 298.742 156.171C298.742 155.442 298.639 154.904 298.437 154.552C298.235 154.198 297.801 154.021 297.142 154.021H295.942V158.38H297.154ZM292.313 151.466H297.831C299.272 151.466 300.358 151.881 301.076 152.696C301.793 153.509 302.148 154.693 302.148 156.233C302.148 157.988 301.732 159.212 300.906 159.897C300.071 160.577 298.903 160.919 297.4 160.919H295.942V167.893H292.313V151.466Z" fill="white"/>
<path d="M308.213 162.257L307.341 155.846L306.468 162.257H308.213ZM305.252 151.466H309.385L312.454 167.893H309.104L308.559 164.425H306.149L305.58 167.893H302.148L305.252 151.466Z" fill="white"/>
<path d="M315.374 161.183L312.252 151.466H315.681L317.242 156.661L318.637 151.466H321.922L318.859 161.183V167.893H315.374V161.183Z" fill="white"/>
<path d="M323.366 151.466H327.258L329.065 161.018L331.01 151.466H334.761L335.043 167.893H332.471L332.164 156.965L330.254 167.893H327.97L325.94 156.886L325.697 167.893H323.076L323.366 151.466Z" fill="white"/>
<path d="M337.418 151.466H344.801V153.943H341.049V158.02H343.908V160.538H341.049V165.443H344.842V167.893H337.418V151.466Z" fill="white"/>
<path d="M346.483 151.466H349.036L352.407 159.375V151.466H355.409V167.893H352.952L349.584 159.375V167.893H346.483V151.466Z" fill="white"/>
<path d="M359.344 154.162H356.867V151.466H365.445V154.162H362.996V167.893H359.344V154.162Z" fill="white"/>
<path d="M292.272 175.803H295.555V192.236H292.272V175.803Z" fill="white"/>
<path d="M297.711 180.51H301.014V192.236H297.711V180.51ZM297.687 176.227H301.014V178.521H297.687V176.227Z" fill="white"/>
<path d="M304.087 191.738C303.404 191.27 302.851 190.523 302.432 189.485L304.684 188.499C304.898 189.04 305.156 189.459 305.446 189.761C305.739 190.057 306.055 190.204 306.409 190.204C306.919 190.204 307.182 189.998 307.182 189.594C307.182 189.301 307.077 189.032 306.875 188.792C306.673 188.557 306.234 188.165 305.557 187.606L304.705 186.9C304.002 186.303 303.489 185.764 303.176 185.274C302.857 184.791 302.696 184.206 302.696 183.532C302.696 182.908 302.86 182.355 303.191 181.865C303.527 181.382 303.967 180.999 304.523 180.72C305.077 180.448 305.668 180.304 306.301 180.304C307.267 180.304 308.067 180.562 308.711 181.086C309.35 181.608 309.807 182.355 310.076 183.329L307.95 184.302C307.812 183.872 307.604 183.485 307.323 183.136C307.036 182.788 306.726 182.618 306.389 182.618C306.172 182.618 305.999 182.676 305.873 182.803C305.744 182.926 305.68 183.083 305.68 183.286C305.68 183.532 305.809 183.798 306.073 184.08C306.339 184.364 306.758 184.739 307.323 185.195L308.149 185.928C308.831 186.498 309.35 187.026 309.71 187.517C310.076 188.01 310.261 188.593 310.261 189.252C310.261 189.917 310.099 190.487 309.766 190.968C309.438 191.448 308.995 191.811 308.445 192.063C307.9 192.309 307.305 192.432 306.673 192.432C305.63 192.432 304.766 192.203 304.087 191.738Z" fill="white"/>
<path d="M313.282 191.978C312.808 191.732 312.48 191.37 312.289 190.897C312.102 190.424 312.008 189.808 312.008 189.05V182.676H310.872V180.51H312.008V176.937H315.347V180.51H317.016V182.676H315.347V188.725C315.347 189.05 315.446 189.286 315.625 189.448C315.81 189.598 316.059 189.679 316.387 189.679C316.662 189.679 316.955 189.647 317.277 189.594V192.189C316.63 192.298 315.968 192.354 315.291 192.354C314.427 192.354 313.757 192.23 313.282 191.978Z" fill="white"/>
<path d="M321.12 240.761H291.742V209.88H321.12V240.761Z" fill="white"/>
<path d="M352.495 214.629H327.712V212.26H352.495V214.629Z" fill="white"/>
<path d="M413.514 214.629H356.492V212.26H413.514V214.629Z" fill="white"/>
<path d="M371.944 220.438H327.712V218.06H371.944V220.438Z" fill="white"/>
<path d="M385.003 220.438H413.514V218.06H385.003V220.438Z" fill="white"/>
<path d="M413.514 225.962H327.712V223.587H413.514V225.962Z" fill="white"/>
<path d="M413.514 235.612C413.514 238.45 411.186 240.761 408.31 240.761H332.908C330.041 240.761 327.712 238.45 327.712 235.612C327.712 232.769 330.041 230.463 332.908 230.463H408.31C411.186 230.463 413.514 232.769 413.514 235.612Z" fill="#82A816"/>
<path d="M321.12 285.101H291.742V254.218H321.12V285.101Z" fill="white"/>
<path d="M352.495 258.972H327.712V256.599H352.495V258.972Z" fill="white"/>
<path d="M413.514 258.972H356.492V256.599H413.514V258.972Z" fill="white"/>
<path d="M371.944 264.779H327.712V262.404H371.944V264.779Z" fill="white"/>
<path d="M385.003 264.779H413.514V262.404H385.003V264.779Z" fill="white"/>
<path d="M413.514 270.303H327.712V267.934H413.514V270.303Z" fill="white"/>
<path d="M413.514 279.955C413.514 282.799 411.186 285.101 408.31 285.101H332.908C330.041 285.101 327.712 282.799 327.712 279.955C327.712 277.112 330.041 274.807 332.908 274.807H408.31C411.186 274.807 413.514 277.112 413.514 279.955Z" fill="#82A816"/>
<path d="M380.367 321.08C380.367 324.691 377.435 327.62 373.821 327.62H325.841C322.224 327.62 319.292 324.691 319.292 321.08V302.26C319.292 298.65 322.224 295.717 325.841 295.717H373.821C377.435 295.717 380.367 298.65 380.367 302.26V321.08Z" fill="#FF5CAB"/>
<path d="M338.821 310.646C339.609 310.646 340.218 310.558 340.652 310.385C341.082 310.213 341.399 309.914 341.583 309.486C341.773 309.058 341.867 308.45 341.867 307.644C341.867 306.672 341.8 305.955 341.656 305.501C341.516 305.037 341.232 304.718 340.816 304.53C340.397 304.337 339.741 304.25 338.848 304.25H337.594V310.646H338.821ZM334.923 302.334H339.671C341.322 302.334 342.523 302.782 343.27 303.682C344.017 304.577 344.392 305.893 344.392 307.62C344.392 309.178 343.993 310.395 343.191 311.258C342.385 312.122 341.217 312.558 339.694 312.558H337.594V321.456H334.923V302.334Z" fill="white"/>
<path d="M351.285 314.726L349.68 306.115L348.098 314.726H351.285ZM348.382 302.334H350.957L355.042 321.456H352.512L351.639 316.641H347.744L346.821 321.456H344.32L348.382 302.334Z" fill="white"/>
<path d="M359.383 314.705L355.25 302.334H357.728L360.66 311.563L363.536 302.334H366.04L361.934 314.705V321.456H359.383V314.705Z" fill="white"/>
<path d="M186.283 32.0802C183.545 32.0802 181.325 34.3031 181.325 37.0326C181.325 39.7651 183.545 41.988 186.283 41.988C189.016 41.988 191.236 39.7651 191.236 37.0326C191.236 34.3031 189.016 32.0802 186.283 32.0802ZM186.283 43.8711C182.514 43.8711 179.451 40.8048 179.451 37.0326C179.451 33.2692 182.514 30.2 186.283 30.2C190.05 30.2 193.113 33.2692 193.113 37.0326C193.113 40.8048 190.05 43.8711 186.283 43.8711Z" fill="#FFB025"/>
<path d="M444.962 194.702C444.962 202.799 438.405 209.366 430.304 209.366C422.209 209.366 415.634 202.799 415.634 194.702C415.634 186.604 422.209 180.038 430.304 180.038C438.405 180.038 444.962 186.604 444.962 194.702Z" fill="#012F6A"/>
<path d="M456.425 189.243C449.63 186.821 457.98 146.033 430.31 146.167L430.304 146.147C402.309 144.58 409.132 186.718 402.071 189.243C395.004 191.77 399.037 197.826 399.037 197.826C399.037 198.93 412.559 199.827 429.244 199.827C445.926 199.827 459.447 198.93 459.447 197.826C459.447 197.826 463.486 191.77 456.425 189.243Z" fill="#FFB025"/>
<path d="M402.071 189.242C395.004 191.77 399.037 197.826 399.037 197.826C399.037 198.665 406.798 199.378 417.804 199.68C429.106 191.366 428.336 186.603 422.906 180.037C412.972 168.032 418.601 151.321 429.106 146.138C402.531 145.847 409.027 186.756 402.071 189.242Z" fill="#FED150"/>
<path d="M19.7483 363.169V375.253H19.9123C21.7691 378.48 39.0396 381.002 60.0998 381.002C81.1454 381.002 98.4159 378.48 100.279 375.253H100.457V363.169H19.7483Z" fill="#FFB025"/>
<path d="M34.4299 363.561V379.549C38.5096 380.084 43.2745 380.495 48.4554 380.737V363.561H34.4299Z" fill="#FED150"/>
<path d="M51.1086 366.434V380.831C52.2391 380.878 53.3901 380.92 54.5674 380.942V366.434H51.1086Z" fill="#FED150"/>
<path d="M100.457 363.169C100.457 366.176 82.3813 368.621 60.0998 368.621C37.8037 368.621 19.7483 366.176 19.7483 363.169C19.7483 360.167 37.8037 357.73 60.0998 357.73C82.3813 357.73 100.457 360.167 100.457 363.169Z" fill="#FFE984"/>
<path d="M90.6698 363.503C90.6698 365.794 76.9929 367.638 60.1002 367.638C43.2163 367.638 29.5276 365.794 29.5276 363.503C29.5276 361.227 43.2163 359.379 60.1002 359.379C76.9929 359.379 90.6698 361.227 90.6698 363.503Z" fill="#F3A43D"/>
<path d="M87.618 363.924C87.618 365.963 75.2882 367.638 60.1 367.638C44.9001 367.638 32.582 365.963 32.582 363.924C32.582 361.869 44.9001 360.205 60.1 360.205C75.2882 360.205 87.618 361.869 87.618 363.924Z" fill="#FED150"/>
<path d="M236.624 378.134C234.656 375.888 234.741 375.549 235.277 374.834C235.748 374.207 236.308 373.61 236.92 373.015L232.576 370.373C231.701 371.967 231.024 373.405 230.702 374.585C231.024 375.001 233.584 378.36 236.624 378.134Z" fill="#FBC6B4"/>
<path d="M230.703 374.586C230.697 374.539 230.662 374.5 230.662 374.5C228.199 378.174 233.822 380.349 237.125 380.829C240.423 381.307 236.624 378.135 236.624 378.135C233.585 378.36 231.025 375.001 230.703 374.586Z" fill="#021F3F"/>
<path d="M231.247 369.571C230.661 371.691 235.367 375.074 236.688 373.953C248.055 364.309 260.197 343.303 264.719 334.711C264.93 334.333 265.132 333.982 265.31 333.657C267.568 329.942 268.872 330.719 276.551 313.566C279.046 308.033 280.554 298.325 280.554 298.325L272.922 295.177L255.391 287.805C249.305 293.6 247.243 310.361 245.925 317.153C244.839 322.887 243.571 332.159 242.373 336.633C238.129 352.219 235.075 355.39 231.247 369.571Z" fill="#FF5CAB"/>
<path d="M281.069 382.337C278.331 381.119 278.267 380.768 278.454 379.883C278.63 379.146 278.882 378.36 279.18 377.567L274.134 376.981C274.008 378.785 274.008 380.361 274.202 381.594C274.673 381.831 278.395 383.811 281.069 382.337Z" fill="#FBC6B4"/>
<path d="M274.202 381.593C274.17 381.554 274.123 381.522 274.123 381.522C273.42 385.91 279.433 385.526 282.628 384.58C285.843 383.631 281.07 382.337 281.07 382.337C278.396 383.81 274.673 381.83 274.202 381.593Z" fill="#021F3F"/>
<path d="M264.075 323.034C265.489 328.713 268.64 334.564 268.64 342.534C268.64 358.75 270.166 362.338 272.568 376.808C272.852 378.487 276.399 379.544 278.311 379.157C278.601 379.099 278.864 379.013 279.046 378.87C279.228 378.785 279.336 378.659 279.403 378.515C285.662 365.017 289.876 342.038 290.433 332.362C290.755 326.651 290.611 327.363 290.409 306.999C290.345 300.908 287.689 291.475 287.689 291.475L262.391 292.292C259.283 300.123 262.452 316.324 264.075 323.034Z" fill="#FC85AB"/>
<path d="M278.311 379.156C278.601 379.098 278.865 379.012 279.046 378.869C282.877 368.189 284.52 356.833 285.923 347.01C287.138 338.682 288.479 329.213 288.523 319.918C288.547 309.743 286.904 300.769 283.641 293.237C283.574 293.085 283.41 293.032 283.249 293.085C283.108 293.158 283.02 293.322 283.082 293.474C286.318 300.908 287.955 309.827 287.929 319.918C287.9 329.19 286.552 338.622 285.34 346.956C283.902 356.863 282.233 368.401 278.311 379.156Z" fill="white"/>
<path d="M297.098 231.174C297.098 231.174 298.753 226.976 302.364 225.855C305.589 224.853 303.457 228.889 300.092 233.08L297.098 231.174Z" fill="#EAA294"/>
<path d="M260.563 253.469C257.933 254.93 257.787 257.569 260.39 260.72C264.371 265.556 269.343 262.65 278.853 258.398C289.66 253.557 300.701 232.677 300.701 232.677C300.701 232.677 300.165 229.955 297.468 230.387C297.468 230.387 289.127 241.467 278.455 246.382C273.215 248.798 266.078 250.383 260.563 253.469Z" fill="#8D4AED"/>
<path d="M277.497 250.76C282.394 254.496 286.558 263.605 288.515 293.401C288.939 299.947 250.943 301.528 250.793 294.959C250.465 277.478 253.453 270.294 258.44 254.535C259.814 250.253 267.824 243.294 277.497 250.76Z" fill="#AA60FF"/>
<path d="M311.821 238.143C311.821 238.143 310.541 228.587 312.735 231.159C314.943 233.727 317.286 234.14 315.244 239.13L311.821 238.143Z" fill="#EAA294"/>
<path d="M274.723 254.187C270.825 259.605 273.347 263.825 276.738 266.106C281.922 269.606 291.188 274.044 302.08 269.428C312.986 264.815 315.716 238.562 315.716 238.562C315.716 238.562 314.424 236.106 311.964 237.285C311.964 237.285 306.248 256.981 295.795 258.829C290.74 259.714 278.413 249.047 274.723 254.187Z" fill="#8D4AED"/>
<path d="M267.293 243.213C267.293 243.213 265.509 250.756 266.98 252.532C268.456 254.31 276.331 252.506 275.956 249.69C275.47 245.935 274.46 242.764 274.46 242.764L267.293 243.213Z" fill="#EAA294"/>
<path d="M262.876 235.428C262.876 242.076 266.599 247.473 271.176 247.473C273.244 247.473 277.816 248.03 279.271 246.241C281.052 244.035 281.061 238.371 280.036 234.853C277.666 226.733 274.228 224.056 269.639 224.056C265.053 224.056 262.876 228.785 262.876 235.428Z" fill="#EAA294"/>
<path d="M270.731 248.231C267.855 248.398 263.023 247.394 260.358 241.467C257.918 236.066 259.318 227.046 264.774 224.276C268.011 222.635 272.418 222.372 275.974 224.056C280.991 226.442 280.34 229.491 279.321 229.989C277.218 231.032 275.558 229.377 275.974 232.264C276.293 234.491 276.123 239.4 274.061 239.695C271.988 239.993 270.233 240.002 270.731 242.995C271.106 245.263 273.639 248.086 270.731 248.231Z" fill="#021F3F"/>
<path d="M287.161 295.505C287.161 295.505 257.549 303.101 250.793 294.96L249.232 300.706C249.232 300.706 267.404 307.605 287.161 295.505Z" fill="#012F6A"/>
<path d="M39.2747 347.799V359.868H39.4504C41.3013 363.092 58.5953 365.614 79.6467 365.614C100.689 365.614 117.974 363.092 119.825 359.868H119.989V347.799H39.2747Z" fill="#FFB025"/>
<path d="M53.967 348.176V364.173C58.0496 364.697 62.8058 365.107 68.0042 365.359V348.176H53.967Z" fill="#FED150"/>
<path d="M70.6436 351.042V365.465C71.7711 365.5 72.9279 365.533 74.0994 365.559V351.042H70.6436Z" fill="#FED150"/>
<path d="M119.989 347.799C119.989 350.809 101.919 353.243 79.6467 353.243C57.3506 353.243 39.2747 350.809 39.2747 347.799C39.2747 344.785 57.3506 342.345 79.6467 342.345C101.919 342.345 119.989 344.785 119.989 347.799Z" fill="#FFE984"/>
<path d="M110.207 348.124C110.207 350.399 96.5241 352.248 79.6461 352.248C62.7534 352.248 49.0676 350.399 49.0676 348.124C49.0676 345.837 62.7534 343.982 79.6461 343.982C96.5241 343.982 110.207 345.837 110.207 348.124Z" fill="#F3A43D"/>
<path d="M107.153 348.522C107.153 350.583 94.8348 352.248 79.6466 352.248C64.435 352.248 52.1169 350.583 52.1169 348.522C52.1169 346.481 64.435 344.826 79.6466 344.826C94.8348 344.826 107.153 346.481 107.153 348.522Z" fill="#FED150"/>
<path d="M15.9795 331.654V343.731H16.1581C18.0032 346.964 35.2824 349.478 56.3368 349.478C77.3882 349.478 94.6559 346.964 96.5156 343.731H96.6971V331.654H15.9795Z" fill="#FFB025"/>
<path d="M30.6697 332.036V348.035C34.7493 348.568 39.5084 348.961 44.6951 349.21V332.036H30.6697Z" fill="#FED150"/>
<path d="M47.3398 334.91V349.32C48.4732 349.363 49.6447 349.392 50.8074 349.422V334.91H47.3398Z" fill="#FED150"/>
<path d="M96.6971 331.654C96.6971 334.664 78.6241 337.104 56.3368 337.104C34.0495 337.104 15.9795 334.664 15.9795 331.654C15.9795 328.645 34.0495 326.208 56.3368 326.208C78.6241 326.208 96.6971 328.645 96.6971 331.654Z" fill="#FFE984"/>
<path d="M86.9035 331.984C86.9035 334.271 73.2236 336.111 56.3367 336.111C39.4558 336.111 25.7642 334.271 25.7642 331.984C25.7642 329.705 39.4558 327.858 56.3367 327.858C73.2236 327.858 86.9035 329.705 86.9035 331.984Z" fill="#F3A43D"/>
<path d="M83.8578 332.394C83.8578 334.442 71.5279 336.111 56.3368 336.111C41.1486 336.111 28.8218 334.442 28.8218 332.394C28.8218 330.336 41.1486 328.692 56.3368 328.692C71.5279 328.692 83.8578 330.336 83.8578 332.394Z" fill="#FED150"/>
</svg>
