<svg width="597" height="406" viewBox="0 0 597 406" fill="none" xmlns="http://www.w3.org/2000/svg">
<path d="M579.587 164.436C579.587 251.061 509.359 321.3 422.72 321.3C336.095 321.3 265.856 251.061 265.856 164.436C265.856 77.7972 336.095 7.5582 422.72 7.5582C509.359 7.5582 579.587 77.7972 579.587 164.436Z" fill="#B6B6F2"/>
<path d="M555.686 164.436C555.686 237.862 496.146 297.388 422.72 297.388C349.294 297.388 289.769 237.862 289.769 164.436C289.769 90.9971 349.294 31.4713 422.72 31.4713C496.146 31.4713 555.686 90.9971 555.686 164.436Z" fill="#E6F0FF"/>
<path d="M535.482 165.9C535.482 228.185 485.006 278.662 422.72 278.662C360.449 278.662 309.961 228.185 309.961 165.9C309.961 103.639 360.449 53.1518 422.72 53.1518C485.006 53.1518 535.482 103.639 535.482 165.9Z" fill="#B6B6F2"/>
<path d="M512.008 165.9C512.008 215.227 472.039 255.188 422.721 255.188C373.407 255.188 333.447 215.227 333.447 165.9C333.447 116.587 373.407 76.6101 422.721 76.6101C472.039 76.6101 512.008 116.587 512.008 165.9Z" fill="#E6F0FF"/>
<path d="M490.914 165.9C490.914 203.558 460.385 234.091 422.721 234.091C385.06 234.091 354.541 203.558 354.541 165.9C354.541 128.239 385.06 97.7196 422.721 97.7196C460.385 97.7196 490.914 128.239 490.914 165.9Z" fill="#B6B6F2"/>
<path d="M469.804 165.899C469.804 191.919 448.729 212.994 422.72 212.994C396.727 212.994 375.631 191.919 375.631 165.899C375.631 139.879 396.727 118.818 422.72 118.818C448.729 118.818 469.804 139.879 469.804 165.899Z" fill="#E6F0FF"/>
<path d="M453.985 165.9C453.985 183.182 439.98 197.166 422.72 197.166C405.449 197.166 391.457 183.182 391.457 165.9C391.457 148.642 405.449 134.648 422.72 134.648C439.98 134.648 453.985 148.642 453.985 165.9Z" fill="#B6B6F2"/>
<path d="M596.915 390.327C596.915 398.768 463.293 405.631 298.456 405.631C133.624 405.631 0 398.768 0 390.327C0 381.868 133.624 375.015 298.456 375.015C463.293 375.015 596.915 381.868 596.915 390.327Z" fill="#CCDDFC"/>
<path d="M361.166 341.055L300.353 251.018L482.52 128L543.328 218.051L361.166 341.055Z" fill="#82A816"/>
<path d="M390.621 311.131L503.57 234.859C494.894 222.017 499.752 203.536 514.321 192.958L494.06 162.959C479.465 172.116 461.488 170.29 452.365 158.839L339.309 235.181C347.295 248.305 341.911 266.723 326.864 276.889L347.062 306.789C362.237 296.538 381.539 298.537 390.621 311.131Z" fill="#A2C620"/>
<path d="M445.045 263.319C428.187 274.706 405.279 270.27 393.897 253.399C382.508 236.542 386.947 213.644 403.807 202.26C420.667 190.87 443.573 195.304 454.957 212.169C466.355 229.032 461.91 251.935 445.045 263.319Z" fill="#82A816"/>
<path d="M339.12 364.176L330.084 255.9L549.133 237.641L558.164 345.923L339.12 364.176Z" fill="#82A816"/>
<path d="M379.445 352.472L515.257 341.147C513.971 325.705 527.244 311.956 545.124 309.857L542.118 273.784C524.898 274.628 510.116 264.25 507.757 249.801L371.813 261.123C372.363 276.481 358.66 289.91 340.564 291.434L343.564 327.388C361.814 325.865 377.671 337.046 379.445 352.472Z" fill="#A2C620"/>
<path d="M450.293 337.365C430.02 339.063 412.208 323.989 410.525 303.707C408.829 283.436 423.895 265.621 444.169 263.936C464.44 262.25 482.257 277.314 483.951 297.585C485.642 317.872 470.575 335.682 450.293 337.365Z" fill="#82A816"/>
<path d="M432.77 367.575C432.77 374.844 426.873 380.739 419.601 380.739H122.622C115.345 380.739 109.451 374.844 109.451 367.575V114.487C109.451 107.212 115.345 101.314 122.622 101.314H419.601C426.873 101.314 432.77 107.212 432.77 114.487V367.575Z" fill="#CBCAFE"/>
<path d="M419.601 101.315H122.622C115.345 101.315 109.451 107.213 109.451 114.488V186.168H432.77V114.488C432.77 107.213 426.873 101.315 419.601 101.315Z" fill="#012F6A"/>
<path d="M219.673 323.92C214.908 317.754 212.528 308.973 212.528 297.575V293.506H235.929V297.575C235.929 303.367 236.515 307.452 237.684 309.838C238.851 312.219 241.022 313.415 244.198 313.415C247.192 313.415 249.196 312.238 250.228 309.909C251.256 307.571 251.767 303.692 251.767 298.27C251.767 292.294 250.929 287.93 249.244 285.171C247.562 282.417 244.433 280.988 239.855 280.896H235.51V264.781H239.292C244.061 264.781 247.332 263.493 249.101 260.923C250.88 258.361 251.767 254.084 251.767 248.102C251.767 243.525 251.159 240.113 249.945 237.871C248.736 235.625 246.576 234.505 243.501 234.505C240.604 234.505 238.619 235.698 237.542 238.082C236.467 240.462 235.929 243.944 235.929 248.524V254.408H212.528V247.542C212.528 237.362 215.26 229.533 220.721 224.065C226.19 218.6 233.782 215.868 243.501 215.868C253.403 215.868 261.114 218.487 266.619 223.714C272.133 228.951 274.895 236.561 274.895 246.557C274.895 253.007 273.58 258.496 270.967 263.028C268.348 267.556 265.034 270.381 261.019 271.506C265.315 273.1 268.699 275.946 271.178 280.052C273.65 284.167 274.895 290.051 274.895 297.716C274.895 308.74 272.417 317.405 267.469 323.709C262.512 330.02 254.618 333.167 243.774 333.167C232.472 333.167 224.443 330.085 219.673 323.92Z" fill="white"/>
<path d="M297.871 240.676C296.848 241.236 294.137 242.45 289.741 244.32C288.997 244.596 287.831 245.064 286.246 245.716C284.65 246.37 283.343 246.976 282.315 247.542V230.168C293.531 224.37 300.395 220.164 302.919 217.545H321.28V331.069H297.871V240.676Z" fill="white"/>
<path d="M188.178 133.958C188.178 142.29 181.418 149.045 173.091 149.045C164.76 149.045 158 142.29 158 133.958C158 125.631 164.76 118.875 173.091 118.875C181.418 118.875 188.178 125.631 188.178 133.958Z" fill="white"/>
<path d="M390.058 133.958C390.058 142.29 383.308 149.045 374.976 149.045C366.646 149.045 359.888 142.29 359.888 133.958C359.888 125.631 366.646 118.875 374.976 118.875C383.308 118.875 390.058 125.631 390.058 133.958Z" fill="white"/>
<path d="M182.603 127.3C182.603 132.557 178.343 136.81 173.091 136.81C167.843 136.81 163.583 132.557 163.583 127.3V94.736C163.583 89.4876 167.843 85.2293 173.091 85.2293C178.343 85.2293 182.603 89.4876 182.603 94.736V127.3Z" fill="#FFB025"/>
<path d="M384.486 127.3C384.486 132.557 380.233 136.81 374.976 136.81C369.725 136.81 365.47 132.557 365.47 127.3V94.736C365.47 89.4876 369.725 85.2293 374.976 85.2293C380.233 85.2293 384.486 89.4876 384.486 94.736V127.3Z" fill="#FFB025"/>
<path d="M404.045 381.733V396.353H404.269C406.501 400.265 427.427 403.319 452.92 403.319C478.415 403.319 499.325 400.265 501.573 396.353H501.792V381.733H404.045Z" fill="#FFB025"/>
<path d="M421.838 382.193V401.571C426.778 402.213 432.543 402.689 438.82 402.986V382.193H421.838Z" fill="#FED150"/>
<path d="M442.022 385.675V403.119C443.397 403.173 444.812 403.216 446.227 403.249V385.675H442.022Z" fill="#FED150"/>
<path d="M501.792 381.732C501.792 385.368 479.906 388.325 452.92 388.325C425.934 388.325 404.045 385.368 404.045 381.732C404.045 378.088 425.934 375.131 452.92 375.131C479.906 375.131 501.792 378.088 501.792 381.732Z" fill="#FFE984"/>
<path d="M489.94 382.127C489.94 384.895 473.367 387.122 452.92 387.122C432.475 387.122 415.897 384.895 415.897 382.127C415.897 379.371 432.475 377.133 452.92 377.133C473.367 377.133 489.94 379.371 489.94 382.127Z" fill="#F3A43D"/>
<path d="M486.242 382.625C486.242 385.114 471.32 387.122 452.921 387.122C434.524 387.122 419.602 385.114 419.602 382.625C419.602 380.142 434.524 378.132 452.921 378.132C471.32 378.132 486.242 380.142 486.242 382.625Z" fill="#FED150"/>
<path d="M417.837 364.099V378.713H418.045C420.288 382.62 441.227 385.674 466.72 385.674C492.202 385.674 513.136 382.62 515.37 378.713H515.57V364.099H417.837Z" fill="#FFB025"/>
<path d="M435.63 364.553V383.934C440.568 384.562 446.33 385.06 452.617 385.352V364.553H435.63Z" fill="#FED150"/>
<path d="M455.823 368.024V385.487C457.181 385.531 458.585 385.571 460.011 385.601V368.024H455.823Z" fill="#FED150"/>
<path d="M515.57 364.099C515.57 367.744 493.695 370.692 466.72 370.692C439.723 370.692 417.837 367.744 417.837 364.099C417.837 360.447 439.723 357.493 466.72 357.493C493.695 357.493 515.57 360.447 515.57 364.099Z" fill="#FFE984"/>
<path d="M503.731 364.495C503.731 367.249 487.153 369.489 466.72 369.489C446.264 369.489 429.697 367.249 429.697 364.495C429.697 361.724 446.264 359.479 466.72 359.479C487.153 359.479 503.731 361.724 503.731 364.495Z" fill="#F3A43D"/>
<path d="M500.033 364.976C500.033 367.471 485.113 369.489 466.72 369.489C448.302 369.489 433.384 367.471 433.384 364.976C433.384 362.509 448.302 360.493 466.72 360.493C485.113 360.493 500.033 362.509 500.033 364.976Z" fill="#FED150"/>
<path d="M440.334 346.014V360.644H440.542C442.788 364.548 463.703 367.603 489.203 367.603C514.691 367.603 535.608 364.548 537.856 360.644H538.076V346.014H440.334Z" fill="#FFB025"/>
<path d="M458.117 346.488V365.847C463.065 366.494 468.827 366.989 475.104 367.289V346.488H458.117Z" fill="#FED150"/>
<path d="M478.315 349.966V367.405C479.692 367.453 481.08 367.508 482.508 367.54V349.966H478.315Z" fill="#FED150"/>
<path d="M538.076 346.014C538.076 349.655 516.189 352.62 489.203 352.62C462.204 352.62 440.334 349.655 440.334 346.014C440.334 342.375 462.204 339.426 489.203 339.426C516.189 339.426 538.076 342.375 538.076 346.014Z" fill="#FFE984"/>
<path d="M526.216 346.42C526.216 349.193 509.66 351.422 489.204 351.422C468.765 351.422 452.176 349.193 452.176 346.42C452.176 343.663 468.765 341.42 489.204 341.42C509.66 341.42 526.216 343.663 526.216 346.42Z" fill="#F3A43D"/>
<path d="M522.521 346.926C522.521 349.396 507.596 351.422 489.205 351.422C470.8 351.422 455.883 349.396 455.883 346.926C455.883 344.442 470.8 342.424 489.205 342.424C507.596 342.424 522.521 344.442 522.521 346.926Z" fill="#FED150"/>
<path d="M412.448 328.632V343.252H412.654C414.902 347.161 435.822 350.218 461.329 350.218C486.813 350.218 507.728 347.161 509.982 343.252H510.182V328.632H412.448Z" fill="#FFB025"/>
<path d="M430.244 329.092V348.46C435.173 349.101 440.927 349.599 447.22 349.891V329.092H430.244Z" fill="#FED150"/>
<path d="M450.429 332.569V350.018C451.798 350.078 453.191 350.121 454.63 350.143V332.569H450.429Z" fill="#FED150"/>
<path d="M510.182 328.632C510.182 332.268 488.314 335.23 461.329 335.23C434.321 335.23 412.448 332.268 412.448 328.632C412.448 324.988 434.321 322.028 461.329 322.028C488.314 322.028 510.182 324.988 510.182 328.632Z" fill="#FFE984"/>
<path d="M498.34 329.027C498.34 331.79 481.764 334.021 461.328 334.021C440.881 334.021 424.287 331.79 424.287 329.027C424.287 326.271 440.881 324.028 461.328 324.028C481.764 324.028 498.34 326.271 498.34 329.027Z" fill="#F3A43D"/>
<path d="M494.634 329.533C494.634 332.009 479.714 334.021 461.329 334.021C442.921 334.021 427.996 332.009 427.996 329.533C427.996 327.047 442.921 325.032 461.329 325.032C479.714 325.032 494.634 327.047 494.634 329.533Z" fill="#FED150"/>
<path d="M295.869 384.414V399.039H296.08C298.336 402.948 319.246 406 344.747 406C370.236 406 391.157 402.948 393.405 399.039H393.608V384.414H295.869Z" fill="#FFB025"/>
<path d="M313.671 384.879V404.246C318.6 404.882 324.36 405.385 330.642 405.68V384.879H313.671Z" fill="#FED150"/>
<path d="M333.854 388.361V405.803C335.229 405.867 336.617 405.905 338.048 405.93V388.361H333.854Z" fill="#FED150"/>
<path d="M393.608 384.414C393.608 388.058 371.738 391.018 344.747 391.018C317.753 391.018 295.869 388.058 295.869 384.414C295.869 380.778 317.753 377.815 344.747 377.815C371.738 377.815 393.608 380.778 393.608 384.414Z" fill="#FFE984"/>
<path d="M381.764 384.809C381.764 387.577 365.189 389.809 344.747 389.809C324.305 389.809 307.713 387.577 307.713 384.809C307.713 382.052 324.305 379.815 344.747 379.815C365.189 379.815 381.764 382.052 381.764 384.809Z" fill="#F3A43D"/>
<path d="M378.058 385.318C378.058 387.796 363.146 389.809 344.747 389.809C326.345 389.809 311.42 387.796 311.42 385.318C311.42 382.829 326.345 380.819 344.747 380.819C363.146 380.819 378.058 382.829 378.058 385.318Z" fill="#FED150"/>
<path d="M348.312 248.27C346.973 247.485 343.794 246.888 341.579 250.864C338.611 256.164 336.59 269.353 329.451 273.725C322.317 278.118 317.536 275.456 314.073 274.101C310.624 272.753 309.929 270.551 307.827 269.994C305.722 269.439 305.089 272.023 310.056 275.543C312.445 277.22 323.15 287.03 332.546 283.366C344.86 278.573 354.719 251.963 348.312 248.27Z" fill="#FBC6B4"/>
<path d="M333.56 324.038C334.802 341.439 341.257 368.508 342.149 383.158C342.225 384.17 342.366 384.367 338.665 385.222C334.361 386.209 337.675 388.257 344.39 388.19C350.701 388.141 353.52 360.733 354.129 346.227C354.31 342.153 352.727 329.825 354.873 318.2C355.138 322.547 355.508 327.484 356.058 332.917C357.665 348.784 376.599 369.585 378.028 382.931C378.133 383.961 378.009 384.367 374.687 385.403C371.356 386.423 374.584 388.341 380.349 388.19C386.114 388.046 382.586 360.409 379.592 347.469C376.973 336.155 375.423 325.474 372.063 295.564C372.076 295.561 372.1 295.553 372.1 295.545C372.1 295.545 372.076 295.553 372.063 295.561C372.041 295.285 372 295.042 371.976 294.766C371.394 284.248 370.583 277.511 375.831 268.205C383.355 254.857 372.76 250.79 366.36 248.158C359.964 245.523 342.125 243.061 340.24 253.385C338.635 262.102 346.432 274.936 341.438 288.349C341.157 289.114 332.123 303.961 333.56 324.038Z" fill="#FBC6B4"/>
<path d="M339.707 291.794C351.205 300.227 365.973 297.619 372.228 296.28C373.93 311.329 383.804 367.725 384.959 375.481C379.914 377.321 378.239 377.702 376.784 377.702C349.836 338.12 355.138 322.548 354.873 318.201C353.961 323.206 353.772 352.564 351.792 377.702C350.017 378.947 344.682 380.581 340.862 377.702C340.67 376.163 333.66 325.465 333.56 324.039C332.505 309.29 337.088 297.383 339.707 291.794Z" fill="#FF5CAB"/>
<path d="M367.737 248.733C367.737 248.733 359.922 265.23 348.462 262.733C345.018 261.97 342.302 257.114 352.882 245.364L349.057 246.211C349.057 246.211 338.871 258.899 335.592 276.197C332.316 293.498 335.555 301.384 335.555 301.384C335.555 301.384 339.044 304.373 354.868 305.796C361.926 306.419 367.924 305.918 373.126 304.298C373.126 304.298 370.922 284.459 372.188 277.707C372.188 277.707 362.814 277.696 363.801 265.168C364.621 254.811 370.797 249.92 370.797 249.92L367.737 248.733Z" fill="#AA60FF"/>
<path d="M364.847 239.012C364.847 239.012 361.155 243.763 364.268 247.439C367.455 251.186 350.774 255.764 351.845 252.737C353.222 248.852 355.782 246.936 354.873 241.883L364.847 239.012Z" fill="#EAA294"/>
<path d="M358.633 227.049C354.518 229.497 347.698 242.802 350.566 246.709C351.829 248.421 358.593 248.318 364.038 243.032C366.27 240.854 369.422 236.545 367.904 231.153C367.217 228.713 363.443 224.2 358.633 227.049Z" fill="#FBC6B4"/>
<path d="M354.798 227.98C353.64 229.579 353.775 230.03 358.931 232.038C364.058 234.042 365.051 233.907 364.237 235.043C361.807 238.433 365.765 238.539 362.814 242.57C359.875 246.587 364.962 244.872 367.737 241.671C368.305 241.028 371.338 237.944 369.983 231.829C368.4 224.682 359.026 222.104 354.798 227.98Z" fill="#021F3F"/>
<path d="M362.813 242.569C362.813 242.569 361.75 243.681 359.09 242.569C356.423 241.444 352.792 237.794 351.302 237.954C349.797 238.097 347.933 245.829 350.631 247.693C353.328 249.557 361.457 247.723 364.155 244.433C364.734 243.735 362.813 242.569 362.813 242.569Z" fill="#021F3F"/>
<path d="M355.079 243.682C355.079 243.682 354.419 241.196 352.63 240.674C350.856 240.149 350.691 242.375 350.918 243.206C351.137 244.018 353.594 246.068 355.079 245.608C356.569 245.138 355.42 244.553 355.079 243.682Z" fill="#EAA294"/>
<path d="M347.93 384.903C347.93 384.903 342.904 387.089 339.817 384.903C339.817 384.903 334.165 385.742 337.723 387.251C341.291 388.769 348.13 390.021 347.93 384.903Z" fill="#021F3F"/>
<path d="M382.792 385.403C382.792 385.403 377.773 387.589 374.686 385.403C374.686 385.403 369.03 386.248 372.584 387.763C376.142 389.272 383 390.522 382.792 385.403Z" fill="#021F3F"/>
<path d="M354.873 318.201L351.537 313.54L353.81 338.299L354.873 318.201Z" fill="#021F3F"/>
<path d="M372.495 317.643L372.568 317.004C370.52 316.752 369.049 315.963 368.196 314.691C366.771 312.543 367.563 309.67 367.571 309.637L366.952 309.462C366.917 309.591 366.07 312.643 367.653 315.037C368.616 316.482 370.244 317.361 372.495 317.643Z" fill="white"/>
<path d="M336.779 314.818C339.022 314.526 340.651 313.657 341.603 312.213C343.194 309.813 342.344 306.764 342.306 306.626L341.687 306.807C341.703 306.832 342.487 309.71 341.067 311.855C340.218 313.138 338.743 313.92 336.695 314.179L336.779 314.818Z" fill="white"/>
<path d="M336.403 288.839L351.371 278.573L324.258 268.249L336.403 288.839Z" fill="#042A54"/>
<path d="M327.684 267.765L302.246 260.141L310.059 279.636L336.403 288.839L327.684 267.765Z" fill="#012F6A"/>
<path d="M376.54 255.103C376.54 255.103 373.172 251.743 369.065 255.496C364.285 259.878 361.288 275.21 353.153 279.065C345.028 282.898 340.024 279.471 336.388 277.596C332.73 275.721 332.148 273.267 329.905 272.423C327.674 271.557 326.759 274.268 331.897 278.664C334.356 280.75 345.231 292.575 355.761 289.789C369.552 286.123 383.22 259.849 376.54 255.103Z" fill="#FBC6B4"/>
<path d="M462.051 211.442C462.051 235.942 442.193 255.799 417.705 255.799C393.208 255.799 373.353 235.942 373.353 211.442C373.353 186.95 393.208 167.09 417.705 167.09C442.193 167.09 462.051 186.95 462.051 211.442Z" fill="#FF5CAB"/>
<path d="M394.717 207.489L415.232 235.419L441.485 187.467L412.962 214.08L394.717 207.489Z" fill="white"/>
<path d="M60.4313 244.891L59.3765 246.79C59.3765 246.79 60.5538 247.509 61.7225 248.234C62.9167 248.927 64.1195 249.62 64.1195 249.62L65.0547 247.65C65.0547 247.65 63.8944 246.979 62.736 246.314C61.5862 245.608 60.4313 244.891 60.4313 244.891Z" fill="#FF5CAB"/>
<path d="M53.7543 240.34L52.5918 242.167C52.5918 242.167 53.7121 242.965 54.8408 243.765C55.9789 244.547 57.1138 245.324 57.1138 245.324L58.214 243.452C58.214 243.452 57.0938 242.686 55.9683 241.926C54.8619 241.133 53.7543 240.34 53.7543 240.34Z" fill="#FF5CAB"/>
<path d="M47.3713 235.351L46.0928 237.083C46.0928 237.083 47.1673 237.965 48.2443 238.841C49.3308 239.693 50.4203 240.548 50.4203 240.548L51.6282 238.752C51.6282 238.752 50.5523 237.916 49.4807 237.077C48.4272 236.212 47.3713 235.351 47.3713 235.351Z" fill="#FF5CAB"/>
<path d="M41.3624 229.876L39.958 231.499C39.958 231.499 40.9576 232.468 41.967 233.434C42.9942 234.375 44.0266 235.311 44.0266 235.311L45.3509 233.612C45.3509 233.612 44.3374 232.698 43.3281 231.781C42.3463 230.828 41.3624 229.876 41.3624 229.876Z" fill="#FF5CAB"/>
<path d="M35.8385 223.881L34.2881 225.342C34.2881 225.342 35.2095 226.405 36.1353 227.476C37.0473 228.55 38.0374 229.538 38.0374 229.538L39.4916 227.968C39.4916 227.968 38.5217 227 37.6338 225.953C36.7367 224.92 35.8385 223.881 35.8385 223.881Z" fill="#FF5CAB"/>
<path d="M31.0517 217.258L29.3335 218.487C29.3335 218.487 30.0583 219.723 30.9037 220.867C31.7112 222.036 32.5777 223.164 32.5777 223.164L34.1766 221.776C34.1766 221.776 33.3461 220.683 32.5661 219.552C31.7491 218.443 31.0517 217.258 31.0517 217.258Z" fill="#FF5CAB"/>
<path d="M27.2816 209.992L25.3813 210.871C25.3813 210.871 25.9711 212.197 26.5503 213.525C27.2245 214.805 27.8943 216.079 27.8943 216.079L29.6699 214.951C29.6699 214.951 29.0263 213.734 28.387 212.513C27.8321 211.255 27.2816 209.992 27.2816 209.992Z" fill="#FF5CAB"/>
<path d="M24.9993 202.127L22.9641 202.512C22.8445 202.544 24.2765 208.244 24.4034 208.195L26.3509 207.462C26.2251 207.492 24.8841 202.149 24.9993 202.127Z" fill="#FF5CAB"/>
<path d="M24.7318 193.949L22.6742 193.724C22.5072 193.714 22.484 199.647 22.6025 199.641L24.6653 199.449C24.5544 199.452 24.5755 193.941 24.7318 193.949Z" fill="#FF5CAB"/>
<path d="M26.5393 185.99L24.6128 185.2C24.6128 185.2 24.151 186.593 23.683 187.984C23.3732 189.42 23.0659 190.868 23.0659 190.868L25.0863 191.287C25.0863 191.287 25.3782 189.945 25.6698 188.598C26.1073 187.294 26.5393 185.99 26.5393 185.99Z" fill="#FF5CAB"/>
<path d="M30.1408 178.68L28.4088 177.468C28.4088 177.468 27.6678 178.701 26.9314 179.938C26.3057 181.247 25.6875 182.559 25.6875 182.559L27.5601 183.509C27.5601 183.509 28.1423 182.267 28.7226 181.028C29.4317 179.851 30.1408 178.68 30.1408 178.68Z" fill="#FF5CAB"/>
<path d="M34.9691 172.139L33.443 170.654C33.443 170.654 32.4507 171.647 31.638 172.831C30.7893 173.979 29.9409 175.123 29.9409 175.123L31.6031 176.44C31.6031 176.44 32.4147 175.342 33.2263 174.249C33.9979 173.107 34.9691 172.139 34.9691 172.139Z" fill="#FF5CAB"/>
<path d="M40.5168 166.071L39.0542 164.516L35.2827 168.582L36.7463 170.146L40.5168 166.071Z" fill="#FF5CAB"/>
<path d="M46.0965 159.923L44.5813 158.417C44.5813 158.417 43.6809 159.461 42.769 160.505C41.8337 161.522 40.8931 162.54 40.8931 162.54L42.3737 164.076C42.3737 164.076 43.3246 163.056 44.2642 162.026C45.1827 160.973 46.0965 159.923 46.0965 159.923Z" fill="#FF5CAB"/>
<path d="M51.4681 153.55L49.9082 152.113C49.9082 152.113 49.0417 153.196 48.1763 154.275C47.2675 155.325 46.3672 156.374 46.3672 156.374L47.8919 157.857C47.8919 157.857 48.8039 156.805 49.7191 155.744C50.5994 154.648 51.4681 153.55 51.4681 153.55Z" fill="#FF5CAB"/>
<path d="M56.5733 146.911L54.9353 145.564C54.9353 145.564 54.1247 146.686 53.3047 147.815C52.4869 148.932 51.6001 149.995 51.6001 149.995L53.1873 151.407C53.1873 151.407 54.0869 150.33 54.9217 149.191C55.746 148.055 56.5733 146.911 56.5733 146.911Z" fill="#FF5CAB"/>
<path d="M61.2868 139.929L59.5611 138.719C59.5611 138.719 58.8171 139.891 58.0669 141.054C57.3364 142.239 56.5229 143.367 56.5229 143.367L58.1884 144.679C58.1884 144.679 59.0167 143.535 59.7607 142.323C60.5247 141.127 61.2868 139.929 61.2868 139.929Z" fill="#FF5CAB"/>
<path d="M65.4142 132.499L63.5816 131.49C63.6958 131.55 60.9683 136.392 60.9683 136.392L62.73 137.55C62.73 137.55 65.5368 132.572 65.4142 132.499Z" fill="#FF5CAB"/>
<path d="M68.6058 124.476L66.6263 123.829C66.6263 123.829 64.8383 129.07 64.6987 129.018L66.5808 129.93C66.7172 130.006 68.6058 124.476 68.6058 124.476Z" fill="#FF5CAB"/>
<path d="M70.1242 115.8L68.0464 115.778C68.1057 115.783 67.9112 117.147 67.7632 118.516C67.6766 119.895 67.2676 121.218 67.2676 121.218L69.2904 121.662C69.2904 121.662 69.7205 120.245 69.8209 118.754C69.9794 117.282 70.1875 115.802 70.1242 115.8Z" fill="#FF5CAB"/>
<path d="M69.0811 107.072L67.084 107.676C67.2466 107.635 68.1945 113.062 68.0149 113.078L70.0937 112.894C70.2828 112.87 69.2577 107.032 69.0811 107.072Z" fill="#FF5CAB"/>
<path d="M65.4868 99.1425L63.7305 100.325C63.8636 100.241 66.3398 105.086 66.2129 105.148L68.1478 104.348C68.2841 104.277 65.6231 99.0613 65.4868 99.1425Z" fill="#FF5CAB"/>
<path d="M60.2498 92.4144L58.7651 93.9565C58.7651 93.9565 59.6982 94.9521 60.5626 96.0017C61.408 97.0649 62.2534 98.1362 62.2534 98.1362L63.8893 96.789C63.8893 96.789 63.0006 95.6662 62.1182 94.5435C61.2018 93.4424 60.2498 92.4144 60.2498 92.4144Z" fill="#FF5CAB"/>
<path d="M54.3665 86.5194L53 88.1751C53 88.1751 53.9923 89.1246 54.9846 90.0688C55.9854 91.013 56.926 92.0112 56.926 92.0112L58.3569 90.4205C58.3569 90.4205 57.39 89.3925 56.3765 88.4456C55.3715 87.4852 54.3665 86.5194 54.3665 86.5194Z" fill="#FF5CAB"/>
<path d="M48.3212 80.9333L46.9634 82.5971L51.0233 86.3413L52.3749 84.6748L48.3212 80.9333Z" fill="#FF5CAB"/>
<path d="M42.4879 75.2164L41.0283 76.7963C41.0283 76.7963 42.009 77.7973 42.9908 78.7982C43.9853 79.7695 44.9838 80.7407 44.9838 80.7407L46.3598 79.0931C46.3598 79.0931 45.3834 78.1381 44.3932 77.1831C43.441 76.2038 42.4879 75.2164 42.4879 75.2164Z" fill="#FF5CAB"/>
<path d="M37.1915 69.0349L35.5664 70.3957C35.5664 70.3957 36.4497 71.513 37.3268 72.6303C38.2093 73.7368 39.1656 74.7729 39.1656 74.7729L40.6633 73.2579C40.6633 73.2579 39.7353 72.2434 38.8824 71.1775C38.0369 70.1035 37.1915 69.0349 37.1915 69.0349Z" fill="#FF5CAB"/>
<path d="M32.9869 62.0736L31.1416 63.0692C31.1416 63.0692 31.2917 63.3993 31.5114 63.8997C31.7809 64.3705 32.1328 65.0008 32.4902 65.6339C33.1633 66.9189 33.9833 68.0903 33.9833 68.0903L35.6785 66.8269C35.6785 66.8269 34.8964 65.7069 34.2571 64.4922C33.9222 63.8997 33.5859 63.2991 33.3356 62.8555C33.1295 62.382 32.9869 62.0736 32.9869 62.0736Z" fill="#FF5CAB"/>
<path d="M30.361 54.3449L28.3447 54.8373C28.3447 54.8373 28.4262 55.1916 28.5414 55.73C28.6396 56.2792 28.8065 56.9907 29.0654 57.6832C29.5221 59.0738 29.9828 60.4644 29.9828 60.4644L31.8904 59.6176C31.8904 59.6176 31.4591 58.319 31.0322 57.0069C30.7901 56.3684 30.6326 55.6948 30.5417 55.1889C30.433 54.6857 30.361 54.3449 30.361 54.3449Z" fill="#FF5CAB"/>
<path d="M29.4716 46.136L27.4047 46.1658C27.4047 46.1658 27.392 47.6348 27.5072 49.0903C27.6677 50.5511 27.824 52.0093 27.824 52.0093L29.8712 51.6819C29.8712 51.6819 29.7221 50.2968 29.5741 48.9171C29.4632 47.5292 29.4716 46.136 29.4716 46.136Z" fill="#FF5CAB"/>
<path d="M30.1333 37.8851L28.1011 37.4793C28.1011 37.4793 27.8727 38.9294 27.6531 40.3767C27.5516 41.8349 27.4531 43.2958 27.4531 43.2958L29.5149 43.4121C29.5149 43.4121 29.6163 42.0243 29.7094 40.6338C29.9199 39.2595 30.1333 37.8851 30.1333 37.8851Z" fill="#FF5CAB"/>
<path d="M32.2434 29.8992L30.3115 29.0985C30.3115 29.0985 29.8613 30.4782 29.4068 31.8579C28.9715 33.2485 28.6777 34.6796 28.6777 34.6796L30.6813 35.2207C30.6813 35.2207 30.9646 33.8545 31.3766 32.5315C31.8122 31.2167 32.2434 29.8992 32.2434 29.8992Z" fill="#FF5CAB"/>
<path d="M35.6988 22.4511L33.936 21.296C33.936 21.296 33.2578 22.5702 32.595 23.8444C31.8902 25.1078 31.3765 26.4713 31.3765 26.4713L33.2578 27.3911C33.2578 27.3911 33.7436 26.0898 34.4148 24.8887C35.0541 23.6658 35.6988 22.4511 35.6988 22.4511Z" fill="#FF5CAB"/>
<path d="M40.3683 15.8069L38.8317 14.3325C38.8317 14.3325 37.8837 15.3957 37.0678 16.5698C36.1907 17.6979 35.4194 18.91 35.4194 18.91L37.1208 20.1733C37.1208 20.1733 37.8488 19.0182 38.6891 17.9387C39.4688 16.816 40.3683 15.8069 40.3683 15.8069Z" fill="#FF5CAB"/>
<path d="M46.0765 10.1771L44.8307 8.42404C44.8307 8.42404 43.685 9.24913 42.6959 10.2718C41.6773 11.2511 40.6606 12.2331 40.6606 12.2331L42.1137 13.8022C42.1137 13.8022 43.0849 12.8689 44.0486 11.9302C44.9903 10.9589 46.0765 10.1771 46.0765 10.1771Z" fill="#FF5CAB"/>
<path d="M52.6801 5.82454L51.7895 3.83615C51.7895 3.83615 50.5645 4.50706 49.342 5.17799C48.1719 5.96254 47.0054 6.74711 47.0054 6.74711L48.1541 8.58398C48.1541 8.58398 49.2616 7.84542 50.366 7.09333C51.5209 6.46028 52.6801 5.82454 52.6801 5.82454Z" fill="#FF5CAB"/>
<path d="M59.9783 3.06511L59.5103 0.914366C59.5103 0.914366 58.1828 1.30933 56.8566 1.71243C56.1857 1.89639 55.5294 2.13173 55.06 2.35898C54.5793 2.55647 54.2622 2.69986 54.2622 2.69986L55.0189 4.74512C55.0189 4.74512 55.3232 4.61798 55.7807 4.4232C56.2279 4.21218 56.8418 3.99034 57.4707 3.8172C58.7239 3.44116 59.9783 3.06511 59.9783 3.06511Z" fill="#FF5CAB"/>
<path d="M67.6497 2.24257L67.6876 0.035033C67.6876 -0.116467 62.1533 0.259543 62.1744 0.405632L62.4747 2.58887C62.4576 2.44819 67.6497 2.08837 67.6497 2.24257Z" fill="#FF5CAB"/>
<path d="M75.2806 3.39453L75.8093 1.26275C75.8093 1.26275 74.4923 0.797374 73.1196 0.599884C71.7553 0.386161 70.3859 0.164359 70.3859 0.164359L70.187 2.36107C70.187 2.36107 71.4691 2.56668 72.7541 2.76687C74.041 2.95084 75.2806 3.38912 75.2806 3.39453Z" fill="#FF5CAB"/>
<path d="M82.4745 6.40869L83.4352 4.45537C83.4352 4.45537 82.2294 3.7385 80.9666 3.15415C79.6815 2.62119 78.3892 2.08819 78.3892 2.08819L77.7158 4.17407C77.7158 4.17407 78.9238 4.67455 80.1422 5.17504C81.3334 5.72422 82.4745 6.40869 82.4745 6.40869Z" fill="#FF5CAB"/>
<path d="M88.9789 10.9541L90.2588 9.22812C90.2588 9.22812 89.2454 8.24336 88.0829 7.46152C86.9331 6.65803 85.7855 5.85185 85.7855 5.85185L84.7085 7.74018C84.7085 7.74018 85.8023 8.49765 86.8909 9.26597C87.9993 10.0099 88.9789 10.9541 88.9789 10.9541Z" fill="#FF5CAB"/>
<path d="M94.7137 16.6187L96.2322 15.1172C96.2322 15.1172 95.2937 14.0621 94.3087 13.0584C93.3272 12.0385 92.3465 11.0212 92.3465 11.0212L90.9746 12.6715C90.9746 12.6715 91.9185 13.6481 92.86 14.6248C93.8101 15.6014 94.7137 16.6187 94.7137 16.6187Z" fill="#FF5CAB"/>
<path d="M99.6506 23.1357L101.327 21.8453C101.327 21.8453 100.523 20.6712 99.714 19.5025C98.9067 18.3392 97.9755 17.2733 97.9755 17.2733L96.3999 18.699C96.3999 18.699 97.2981 19.7351 98.0907 20.8606C98.8729 21.9995 99.6506 23.1357 99.6506 23.1357Z" fill="#FF5CAB"/>
<path d="M103.969 30.1704L105.75 29.0585L102.874 24.151L101.163 25.3765L103.969 30.1704Z" fill="#FF5CAB"/>
<path d="M107.64 37.6343L109.501 36.6793C109.501 36.6793 108.967 35.3536 108.296 34.093C107.661 32.8187 107.023 31.5445 107.023 31.5445L105.208 32.5996C105.208 32.5996 105.833 33.8549 106.461 35.0966C107.111 36.3303 107.64 37.6343 107.64 37.6343Z" fill="#FF5CAB"/>
<path d="M110.96 45.3521L112.843 44.4511L110.605 39.2488L108.719 40.1578L110.96 45.3521Z" fill="#FF5CAB"/>
<path d="M114.565 53.0571L116.373 51.9939C116.373 51.9939 115.735 50.7521 115.091 49.5131C114.442 48.2795 113.933 46.9701 113.933 46.9701L112.072 47.9224C112.072 47.9224 112.585 49.2615 113.258 50.5195C113.908 51.7937 114.565 53.0571 114.565 53.0571Z" fill="#FF5CAB"/>
<path d="M118.817 60.4102L120.504 59.1468L117.62 54.4151L115.85 55.5432L118.817 60.4102Z" fill="#FF5CAB"/>
<path d="M123.918 67.1494L125.441 65.6561C125.441 65.6561 124.463 64.7065 123.688 63.5567C122.872 62.4583 122.058 61.3491 122.058 61.3491L120.417 62.6936C120.417 62.6936 121.255 63.8326 122.101 64.9716C122.906 66.1592 123.918 67.1494 123.918 67.1494Z" fill="#FF5CAB"/>
<path d="M129.884 73.0874L131.148 71.3451C131.148 71.3451 127.113 67.7632 127.216 67.6442L125.769 69.2242C125.662 69.3378 129.884 73.0874 129.884 73.0874Z" fill="#FF5CAB"/>
<path d="M136.827 77.7144L137.75 75.7421C137.75 75.7421 136.598 75.0794 135.448 74.4193C134.292 73.7592 133.254 72.9042 133.254 72.9042L132.089 74.7303C132.089 74.7303 133.192 75.6232 134.398 76.3293C135.616 77.0218 136.827 77.7144 136.827 77.7144Z" fill="#FF5CAB"/>
<path d="M144.509 80.7598L145.019 78.6199C145.019 78.6199 143.767 78.2546 142.506 77.8813C141.291 77.3673 140.078 76.8533 140.078 76.8533L139.286 78.8931C139.286 78.8931 140.568 79.4315 141.852 79.9725C143.183 80.3621 144.509 80.7598 144.509 80.7598Z" fill="#FF5CAB"/>
<path d="M152.607 82.0479L152.709 79.8484C152.709 79.8484 151.403 79.7537 150.096 79.6644C148.806 79.4399 147.517 79.2072 147.517 79.2072L147.142 81.3796C147.142 81.3796 148.5 81.615 149.859 81.8558C151.236 81.9505 152.607 82.0479 152.607 82.0479Z" fill="#FF5CAB"/>
<path d="M160.758 81.6874L160.502 79.5015C160.502 79.5015 159.196 79.653 157.891 79.818C156.578 79.8586 155.269 79.9019 155.269 79.9019L155.292 82.104C155.292 82.104 156.669 82.0635 158.037 82.0148C159.398 81.8497 160.758 81.6874 160.758 81.6874Z" fill="#FF5CAB"/>
<path d="M168.729 79.9567L168.179 77.8303C168.179 77.8303 166.906 78.1901 165.631 78.5472C164.34 78.8205 163.044 79.0937 163.044 79.0937L163.411 81.2661C163.411 81.2661 164.748 80.982 166.092 80.698C167.409 80.3246 168.729 79.9567 168.729 79.9567Z" fill="#FF5CAB"/>
<path d="M176.404 77.1452L175.621 75.1054C175.621 75.1054 174.409 75.6789 173.158 76.1388C171.902 76.596 170.655 77.0532 170.655 77.0532L171.295 79.1553C171.295 79.1553 172.58 78.6818 173.868 78.2111C175.153 77.7404 176.404 77.1533 176.404 77.1452Z" fill="#FF5CAB"/>
<path d="M183.728 73.496L182.769 71.5508C182.769 71.5508 181.62 72.2488 180.405 72.8278C179.208 73.4338 178.006 74.037 178.006 74.037L178.85 76.0498C178.85 76.0498 180.085 75.4303 181.313 74.8134C182.555 74.221 183.728 73.5014 183.728 73.496Z" fill="#FF5CAB"/>
<path d="M190.72 69.1859L189.613 67.322C189.613 67.322 188.505 68.1092 187.353 68.8072C186.204 69.5268 185.063 70.2492 185.063 70.2492L186.076 72.1699C186.076 72.1699 187.241 71.4341 188.411 70.7009C189.588 69.9813 190.72 69.1859 190.72 69.1859Z" fill="#FF5CAB"/>
<path d="M197.371 64.3223L196.141 62.5503C196.141 62.5503 195.08 63.4052 193.984 64.2032C192.893 65.0121 191.801 65.8183 191.801 65.8183L192.943 67.6553C192.943 67.6553 194.057 66.8301 195.174 66.005C196.289 65.1934 197.371 64.3223 197.371 64.3223Z" fill="#FF5CAB"/>
<path d="M203.693 58.9738L202.348 57.3019C202.348 57.3019 201.345 58.2298 200.304 59.1064C199.264 59.991 198.22 60.8757 198.22 60.8757L199.49 62.6206C199.49 62.6206 200.549 61.7225 201.604 60.8189C202.661 59.9234 203.693 58.9738 203.693 58.9738Z" fill="#FF5CAB"/>
<path d="M209.649 53.1843L208.207 51.6097C208.207 51.6097 207.276 52.6161 206.283 53.5684C205.302 54.5207 204.32 55.4865 204.32 55.4865L205.696 57.126C205.696 57.126 206.691 56.152 207.694 55.1835C208.699 54.2177 209.649 53.1843 209.649 53.1843Z" fill="#FF5CAB"/>
<path d="M215.208 46.9322L213.648 45.4903C213.648 45.4903 212.762 46.5427 211.876 47.5978C210.965 48.6285 210.046 49.6484 210.046 49.6484L211.531 51.1851C211.531 51.1851 212.466 50.1407 213.4 49.0992C214.306 48.0143 215.208 46.9322 215.208 46.9322Z" fill="#FF5CAB"/>
<path d="M220.244 40.3502L218.708 38.8731C218.708 38.8731 217.797 39.9308 216.899 41.1428C216.103 42.2547 215.299 43.372 215.299 43.372L216.912 44.7437C216.912 44.7437 217.743 43.5857 218.574 42.4251C219.346 41.4052 220.244 40.3502 220.244 40.3502Z" fill="#FF5CAB"/>
<path d="M225.876 34.5117L224.527 32.8452C224.527 32.8452 223.505 33.8056 222.487 34.7687C221.518 35.7886 220.544 36.8031 220.544 36.8031L222.016 38.3506C222.016 38.3506 222.96 37.3658 223.898 36.3811C224.893 35.445 225.876 34.5117 225.876 34.5117Z" fill="#FF5CAB"/>
<path d="M232.143 29.4823L231.017 27.6427C231.017 27.6427 229.877 28.4435 228.739 29.2524C227.663 30.1505 226.584 31.0378 226.584 31.0378L227.87 32.7666C227.87 32.7666 228.912 31.9009 229.951 31.0378C231.053 30.2641 232.143 29.4823 232.143 29.4823Z" fill="#FF5CAB"/>
<path d="M238.984 25.4756L238.142 23.4574C238.063 23.2897 233.27 26.1167 233.27 26.1167L234.321 28.0132C234.321 28.0132 238.913 25.3025 238.984 25.4756Z" fill="#FF5CAB"/>
<path d="M246.347 22.8598L245.904 20.7036C245.904 20.7036 240.561 22.1673 240.635 22.3729L241.355 24.437C241.302 24.2314 246.347 22.8598 246.347 22.8598Z" fill="#FF5CAB"/>
<path d="M254.02 22.0728L254.068 19.8653C254.068 19.9275 252.678 19.6272 251.308 19.895C249.933 20.0546 248.558 20.2142 248.558 20.2142L248.849 22.3975C248.849 22.3975 250.139 22.246 251.428 22.0972C252.724 21.8348 254.02 22.1296 254.02 22.0728Z" fill="#FF5CAB"/>
<path d="M261.628 23.3013L262.18 21.1748C262.18 21.1748 256.815 19.7383 256.766 20.0386L256.555 22.2354C256.596 21.9405 261.628 23.3067 261.628 23.3013Z" fill="#FF5CAB"/>
<path d="M268.813 26.3311L269.795 24.3913L264.766 21.9917L264.057 24.0586L268.813 26.3311Z" fill="#FF5CAB"/>
<path d="M275.311 30.9248L276.596 29.1988C276.596 29.1988 276.342 28.9608 275.909 28.6659C275.479 28.3548 274.913 27.9516 274.348 27.5431C273.203 26.7234 272.064 25.9145 272.064 25.9145L270.974 27.7839L275.311 30.9248Z" fill="#FF5CAB"/>
<path d="M281.092 36.5903L282.58 35.0645L278.568 31.1228L277.21 32.7894L281.092 36.5903Z" fill="#FF5CAB"/>
<path d="M286.854 42.5957L288.253 40.9698L284.449 36.9983L282.986 38.5566L286.854 42.5957Z" fill="#FF5CAB"/>
<path d="M293.018 48.1655L294.284 46.4179L290.207 42.7927L288.854 44.4565L293.018 48.1655Z" fill="#FF5CAB"/>
<path d="M299.665 53.1006L300.752 51.2231C300.752 51.2231 299.638 50.4656 298.558 49.6486C297.471 48.8424 296.386 48.0389 296.386 48.0389L295.174 49.8217C295.174 49.8217 296.291 50.6577 297.408 51.4801C298.52 52.3187 299.665 53.1006 299.665 53.1006Z" fill="#FF5CAB"/>
<path d="M306.839 57.1587L307.7 55.1513C307.7 55.1513 306.46 54.6481 305.308 53.9664C304.158 53.2684 303.008 52.5813 303.008 52.5813L301.986 54.4994C301.986 54.4994 303.176 55.2135 304.364 55.9277C305.557 56.6338 306.839 57.1587 306.839 57.1587Z" fill="#FF5CAB"/>
<path d="M314.454 60.1963L315.025 58.078C315.025 58.078 310.001 56.4197 310.058 56.2519L309.287 58.3025C309.222 58.4703 314.454 60.1963 314.454 60.1963Z" fill="#FF5CAB"/>
<path d="M322.458 61.895L322.69 59.701C322.69 59.701 322.358 59.6658 321.871 59.6117C321.376 59.5793 320.734 59.4927 320.088 59.3249C318.803 59.0409 317.518 58.7623 317.518 58.7623L317.055 60.9076C317.055 60.9076 318.394 61.2025 319.742 61.5C320.41 61.6678 321.089 61.7679 321.603 61.8004C322.117 61.8572 322.458 61.895 322.458 61.895Z" fill="#FF5CAB"/>
<path d="M330.611 62.1529L330.487 59.9561C330.487 59.9561 329.174 60.0292 327.865 60.0075C326.553 60.0075 325.241 59.9778 325.241 59.9778L325.125 62.1772C325.125 62.1772 326.502 62.2151 327.873 62.2151C329.247 62.2313 330.611 62.1529 330.611 62.1529Z" fill="#FF5CAB"/>
<path d="M338.684 60.9409L338.235 58.7848C338.235 58.7848 333.063 59.8318 333.046 59.6965L333.287 61.8905C333.303 62.0204 338.684 60.9409 338.684 60.9409Z" fill="#FF5CAB"/>
<path d="M346.472 58.4979L345.78 56.4202C345.78 56.4202 344.533 56.9126 343.269 57.3184C342.017 57.7648 340.734 58.1138 340.734 58.1138L341.284 60.2456C341.284 60.2456 342.593 59.8777 343.894 59.4205C345.204 59.0011 346.472 58.4979 346.472 58.4979Z" fill="#FF5CAB"/>
<path d="M353.947 55.3487L353.165 53.3088L348.214 55.4542L348.964 57.5103L353.947 55.3487Z" fill="#FF5CAB"/>
<path d="M361.384 52.4701L360.759 50.3734C360.759 50.3734 359.444 50.7819 358.178 51.2797C356.904 51.7721 355.63 52.2672 355.63 52.2672L356.368 54.3286C356.368 54.3286 357.616 53.8443 358.868 53.3574C360.102 52.8704 361.376 52.4701 361.384 52.4701Z" fill="#FF5CAB"/>
<path d="M368.992 50.3814L368.597 48.2171C368.597 48.2171 367.253 48.4688 365.935 48.8151C364.615 49.183 363.297 49.5536 363.297 49.5536L363.86 51.6719C363.86 51.6719 365.137 51.3175 366.411 50.9631C367.694 50.6249 368.992 50.3814 368.992 50.3814Z" fill="#FF5CAB"/>
<path d="M376.735 49.3918L376.692 47.195C376.692 47.195 375.293 47.1382 373.946 47.3682C372.585 47.5413 371.227 47.7144 371.227 47.7144L371.533 49.9004C371.533 49.9004 372.834 49.7272 374.141 49.5595C375.445 49.3404 376.735 49.3918 376.735 49.3918Z" fill="#FF5CAB"/>
<path d="M384.386 49.9917L384.914 47.8437C384.949 47.5921 379.397 47.1268 379.397 47.1268L379.273 49.3289C379.273 49.3289 384.424 49.7536 384.386 49.9917Z" fill="#FF5CAB"/>
<path d="M391.578 52.7539L392.644 50.8359C392.731 50.6925 387.596 48.3631 387.556 48.5174L386.847 50.6032C386.879 50.4598 391.654 52.6159 391.578 52.7539Z" fill="#FF5CAB"/>
<path d="M397.436 57.9863L398.962 56.474C398.962 56.474 395.117 52.1942 394.909 52.4593L393.67 54.2638C393.867 54.0068 397.43 57.9863 397.436 57.9863Z" fill="#FF5CAB"/>
<path d="M401.375 64.9712L403.225 63.9864C403.225 63.9864 403.09 63.6456 402.892 63.1315C402.662 62.6338 402.489 61.8952 402.059 61.3027C401.304 60.0556 400.552 58.8111 400.552 58.8111L398.902 60.1665C398.902 60.1665 399.603 61.3244 400.303 62.4769C400.701 63.0233 400.847 63.7159 401.066 64.1758C401.247 64.6519 401.375 64.9712 401.375 64.9712Z" fill="#FF5CAB"/>
<path d="M568.836 315.95L567.951 314.987L572.028 311.237C573.243 310.125 573.324 308.229 572.215 307.006L569.239 303.73C568.465 302.877 568.067 301.771 568.124 300.619C568.181 299.469 568.684 298.411 569.536 297.637L572.258 295.175C572.856 294.629 573.21 293.882 573.243 293.073C573.275 292.262 572.986 291.488 572.437 290.895L569.753 288.022C568.928 287.143 568.517 285.993 568.598 284.795C568.673 283.613 569.244 282.498 570.17 281.746L572.023 280.228C572.704 279.674 573.105 278.851 573.124 277.975C573.145 277.093 572.78 276.257 572.128 275.67L568.254 272.18L569.125 271.211L573.002 274.696C573.938 275.543 574.455 276.749 574.43 278.004C574.401 279.262 573.819 280.439 572.845 281.237L570.989 282.752C570.34 283.283 569.95 284.04 569.896 284.881C569.839 285.72 570.126 286.521 570.702 287.135L573.386 290.008C574.182 290.855 574.593 291.964 574.544 293.127C574.495 294.291 573.995 295.359 573.129 296.138L570.413 298.603C569.818 299.147 569.469 299.883 569.428 300.686C569.39 301.49 569.666 302.261 570.199 302.853L573.183 306.129C574.771 307.88 574.65 310.598 572.907 312.197L568.836 315.95Z" fill="#012F6A"/>
<path d="M62.2804 31.3602C59.7547 31.3602 57.7002 33.4163 57.7002 35.9349C57.7002 38.4617 59.7547 40.5151 62.2804 40.5151C64.8039 40.5151 66.8584 38.4617 66.8584 35.9349C66.8584 33.4163 64.8039 31.3602 62.2804 31.3602ZM62.2804 42.252C58.8002 42.252 55.9683 39.4194 55.9683 35.9349C55.9683 32.4586 58.8002 29.6206 62.2804 29.6206C65.7581 29.6206 68.5914 32.4586 68.5914 35.9349C68.5914 39.4194 65.7581 42.252 62.2804 42.252Z" fill="#FFB025"/>
<path d="M111.676 305.799H160.694L167.909 270.18H121.346L111.676 305.799Z" fill="#1B2044"/>
<path d="M116.087 303.775H140.97C140.773 303.88 146.781 303.775 146.781 303.775C146.781 303.775 147.961 303.783 147.972 303.775H157.414L163.575 272.972L123.984 273.148L116.087 303.775Z" fill="#F5F5FF"/>
<path d="M88.8418 305.818L160.694 305.799L161.627 301.738H88.8418V305.818Z" fill="#15122C"/>
<path d="M129.181 388.78H213.043V309.697H129.181V388.78Z" fill="#14385B"/>
<path d="M135.873 388.78H219.735V309.697H135.873V388.78Z" fill="#1B416D"/>
<path d="M25.9927 388.78H35.2479V309.697H25.9927V388.78Z" fill="#14385B"/>
<path d="M34.0127 388.78H43.2639V309.697H34.0127V388.78Z" fill="#1B416D"/>
<path d="M25.9927 316.358H225.809V305.818H25.9927V316.358Z" fill="#264D86"/>
<path d="M121.73 281.567C121.73 281.567 117.631 280.839 115.015 282.514C111.972 284.462 112.727 284.397 110.304 286.174L111.964 288.885C111.964 288.885 113.883 287.978 114.313 287.44C115.029 286.547 115.554 286.261 117.055 284.737C118.504 283.274 118.28 282.852 120.029 282.633C122.598 282.313 121.73 281.567 121.73 281.567Z" fill="#FBC6B4"/>
<path d="M114.468 285.525C114.468 285.525 120.145 284.83 119.38 286.058C118.613 287.295 113.714 287.184 111.555 288.003L114.468 285.525Z" fill="#FBC6B4"/>
<path d="M75.3354 274.825C69.1309 276.281 67.9779 279.874 68.9883 283.645C70.5123 289.429 74.3947 298.448 85.1368 301.987C95.8749 305.536 114.367 288.347 114.367 288.347C114.367 288.347 114.192 285.208 111.678 284.513C111.678 284.513 95.1212 292.889 86.4368 287.643C82.234 285.098 81.2417 273.462 75.3354 274.825Z" fill="#7D42DB"/>
<path d="M109.637 349.455C104.674 361.226 96.9037 386.767 102.526 387.66C108.177 388.558 111.651 387.178 108.538 385.763C105.429 384.362 105.37 383.97 105.649 383.023C107.343 376.971 114.967 366.339 118.931 357.812C123.512 347.951 113.96 339.147 109.637 349.455Z" fill="#FBC6B4"/>
<path d="M100.569 384.698C100.569 384.698 105.163 387.436 108.538 385.764C108.538 385.764 113.954 387.316 110.23 388.261C106.497 389.224 99.5668 389.497 100.569 384.698Z" fill="#1B416D"/>
<path d="M84.438 344.434C76.8947 354.744 63.4356 377.796 68.7026 379.974C73.9854 382.138 77.6779 381.611 74.9831 379.509C72.2788 377.428 72.3105 377.036 72.8083 376.176C75.8507 370.681 85.7252 362.103 91.549 354.714C98.2913 346.19 91.0396 335.406 84.438 344.434Z" fill="#FBC6B4"/>
<path d="M67.4748 376.636C67.4748 376.636 71.3129 380.351 74.9832 379.509C74.9832 379.509 79.8878 382.277 76.0537 382.342C72.1986 382.412 65.393 381.065 67.4748 376.636Z" fill="#1B416D"/>
<path d="M103.754 335.182C103.754 335.182 90.5732 360.31 75.1251 375.173C75.1251 375.173 71.2035 374.142 67.5767 370.103C67.5767 370.103 77.6468 330.811 84.0149 330.811C85.6687 330.811 103.754 335.182 103.754 335.182Z" fill="#FF5CAB"/>
<path d="M60.4527 319.406C60.4527 319.406 52.4676 335.974 72.482 340.93C92.4656 345.873 102.237 337.716 103.754 343.576C105.279 349.441 99.1213 377.693 99.1213 377.693C99.1213 377.693 103.686 381.042 110.787 379.267C110.787 379.267 132.078 344.685 121.934 330.439C121.934 330.439 110.135 316.409 80.7111 314.826C80.7111 314.826 65.7768 314.447 60.4527 319.406Z" fill="#FF5CAB"/>
<path d="M58.8545 325.818C59.5508 320.164 61.3897 315.075 63.9576 312.194L73.6747 315.305L94.528 312.892C94.528 312.892 95.2182 314.759 96.0203 317.329C87.4425 325.458 72.0663 329.79 58.8545 325.818Z" fill="#1B2044"/>
<path d="M91.4245 273.879C95.4668 278.148 98.5991 287.086 95.8726 315.512C95.2669 321.734 57.7377 326.349 57.9723 320.075C58.709 300.575 65.728 288.604 72.8579 274.507C74.8163 270.681 83.4396 265.349 91.4245 273.879Z" fill="#AA60FF"/>
<path d="M71.7763 332.008C71.7763 332.008 80.2687 303.673 69.0033 294.799C61.701 289.045 36.6555 285.866 47.7401 332.008C47.7401 332.008 55.7558 331.949 71.7763 332.008Z" fill="#468DF5"/>
<path d="M51.2393 341.026C51.2393 343.128 52.9428 344.837 55.0533 344.837H97.9447C100.057 344.837 101.761 343.128 101.761 341.026C101.761 338.913 100.057 337.214 97.9447 337.214H55.0533C52.9428 337.214 51.2393 338.913 51.2393 341.026Z" fill="#468DF5"/>
<path d="M81.4378 347.115C87.919 347.115 93.8308 346.906 94.2915 346.882L94.1995 344.196C93.9871 344.201 73.2966 344.923 66.6842 343.687C57.2726 341.923 56.7991 316.06 57.4067 306.24L54.7152 306.072C54.472 309.932 52.7622 343.825 66.1864 346.338C69.4372 346.944 75.6638 347.115 81.4378 347.115Z" fill="#1B416D"/>
<path d="M75.1567 385.244H79.3065V342.643H75.1567V385.244Z" fill="#468DF5"/>
<path d="M62.8649 382.539H90.1319C93.1099 382.539 95.5225 384.955 95.5225 387.934V387.958H57.4731V387.934C57.4731 384.955 59.8879 382.539 62.8649 382.539Z" fill="#468DF5"/>
<path d="M119.987 302.791C119.987 302.791 129.536 297.478 128.259 300.438C126.986 303.424 125.722 305.791 120.585 306.138L119.987 302.791Z" fill="#FBC6B4"/>
<path d="M90.4553 278.783C84.1443 277.926 81.7265 280.604 81.2098 284.47C80.3844 290.4 80.4869 300.223 89.0309 307.62C97.5896 315.035 121.262 306.305 121.262 306.305C121.262 306.305 122.034 303.113 119.987 301.498C119.987 301.498 101.477 305.942 95.4835 297.759C92.5858 293.795 97.3328 279.728 90.4553 278.783Z" fill="#9151ED"/>
<path d="M92.4883 246.222C96.2587 247.377 100.505 251.343 99.2135 258.97C97.9212 266.582 98.1135 266.761 100.177 269.986C105.516 278.294 88.4132 274.658 91.5985 282.861C100.384 305.485 70.1692 296.861 65.3607 289.727C59.9248 281.657 59.6976 269.65 68.1696 265.882C70.9743 264.662 67.9318 254.936 74.3541 254.214C80.7687 253.467 77.9514 241.791 92.4883 246.222Z" fill="#1B2044"/>
<path d="M176.939 382.966V397.597H177.147C179.391 401.495 200.309 404.558 225.809 404.558C251.294 404.558 272.211 401.495 274.467 397.597H274.681V382.966H176.939Z" fill="#FFB025"/>
<path d="M194.724 383.434V402.794C199.667 403.446 205.433 403.944 211.714 404.236V383.434H194.724Z" fill="#FED150"/>
<path d="M214.923 386.919V404.361C216.296 404.409 217.686 404.455 219.112 404.493V386.919H214.923Z" fill="#FED150"/>
<path d="M274.681 382.966C274.681 386.61 252.8 389.573 225.809 389.573C198.809 389.573 176.939 386.61 176.939 382.966C176.939 379.322 198.809 376.373 225.809 376.373C252.8 376.373 274.681 379.322 274.681 382.966Z" fill="#FFE984"/>
<path d="M262.829 383.367C262.829 386.142 246.262 388.377 225.809 388.377C205.361 388.377 188.78 386.142 188.78 383.367C188.78 380.615 205.361 378.373 225.809 378.373C246.262 378.373 262.829 380.615 262.829 383.367Z" fill="#F3A43D"/>
<path d="M259.125 383.875C259.125 386.348 244.201 388.377 225.809 388.377C207.403 388.377 192.49 386.348 192.49 383.875C192.49 381.384 207.403 379.376 225.809 379.376C244.201 379.376 259.125 381.384 259.125 383.875Z" fill="#FED150"/>
<path d="M201.328 366.498V380.907H201.54C203.755 384.759 224.37 387.771 249.503 387.771C274.618 387.771 295.233 384.759 297.449 380.907H297.649V366.498H201.328Z" fill="#FFB025"/>
<path d="M218.868 366.955V386.039C223.728 386.672 229.403 387.164 235.6 387.451V366.955H218.868Z" fill="#FED150"/>
<path d="M238.764 370.389V387.576C240.116 387.635 241.485 387.676 242.901 387.703V370.389H238.764Z" fill="#FED150"/>
<path d="M297.649 366.499C297.649 370.084 276.098 373 249.503 373C222.891 373 201.328 370.084 201.328 366.499C201.328 362.909 222.891 359.993 249.503 359.993C276.098 359.993 297.649 362.909 297.649 366.499Z" fill="#FFE984"/>
<path d="M285.978 366.889C285.978 369.61 269.644 371.815 249.503 371.815C229.35 371.815 213 369.61 213 366.889C213 364.172 229.35 361.965 249.503 361.965C269.644 361.965 285.978 364.172 285.978 366.889Z" fill="#F3A43D"/>
<path d="M282.326 367.389C282.326 369.826 267.622 371.815 249.502 371.815C231.362 371.815 216.652 369.826 216.652 367.389C216.652 364.935 231.362 362.95 249.502 362.95C267.622 362.95 282.326 364.935 282.326 367.389Z" fill="#FED150"/>
<path d="M171.596 224.82C171.596 227.931 169.062 230.447 165.951 230.447H16.8926C13.7815 230.447 11.2495 227.931 11.2495 224.82V194.525C11.2495 191.414 13.7815 188.882 16.8926 188.882H165.951C169.062 188.882 171.596 191.414 171.596 194.525V224.82Z" fill="#B6B6F2"/>
<path d="M48.4813 217.777C48.4813 220.888 45.9483 223.413 42.8444 223.413H25.9276C22.8164 223.413 20.3013 220.888 20.3013 217.777V200.866C20.3013 197.75 22.8164 195.226 25.9276 195.226H42.8444C45.9483 195.226 48.4813 197.75 48.4813 200.866V217.777Z" fill="white"/>
<path d="M21.1064 201.164L35.0961 219.969L50.7977 193.021L34.4906 209.394L21.1064 201.164Z" fill="#3B2B58"/>
<path d="M161.906 200.669H58.3271V199.314H161.906V200.669Z" fill="white"/>
<path d="M161.906 208.723H58.3271V207.387H161.906V208.723Z" fill="white"/>
<path d="M161.906 216.788H58.3271V215.446H161.906V216.788Z" fill="white"/>
</svg>
